<?xml version="1.0" encoding="iso-8859-1"?>
<!-- Generator: Adobe Illustrator 22.1.0, SVG Export Plug-In . SVG Version: 6.00 Build 0)  -->
<svg version="1.1" id="_x31_1" xmlns="http://www.w3.org/2000/svg" xmlns:xlink="http://www.w3.org/1999/xlink" x="0px" y="0px"
	 viewBox="0 0 512 512" style="enable-background:new 0 0 512 512;" xml:space="preserve">
<g>
	<path d="M121.801,191.794c-3.585-2.903-2.511-10.285,0.05-11.189c2.561-0.904,5.148,5.151,3.475,10.034
		C124.106,194.197,121.801,191.794,121.801,191.794z"/>
	<path d="M161.873,185.756c-0.912-2.221-0.41-8.205,2.151-8.411c2.561-0.205,2.39,1.592,1.708,4.109
		C165.048,183.969,162.632,187.606,161.873,185.756z"/>
	<path d="M156.696,197.31c-1.517,0.365-2.542-1.607-0.935-1.786c0.379-0.042,0.692,0.02,0.937,0.143
		C157.49,196.065,157.548,197.105,156.696,197.31z"/>
	<path d="M163.031,195.167c-1.207-0.479-1.036-2.749,0-2.581c0.479,0.079,0.597,0.671,0.546,1.269
		C163.518,194.548,163.235,195.248,163.031,195.167z"/>
	<path d="M173.26,232.72c-2.482,3.261-1.999,4.999-4.655,6.424c-2.656,1.425-1.293,2.647-5.717,3.364
		c-4.424,0.717-6.725,1.007-5.575-3.364c1.151-4.37,0.528-6.103,6.496-7.231C169.776,230.787,173.26,232.72,173.26,232.72z"/>
	<path d="M183.203,232.139c-3.007,2.393-5.905,5.58-3.007,7.005c2.898,1.425,2.898,3.849,5.312,1.188
		c2.415-2.662,2.822-2.166,3.826-5.074C190.337,232.351,183.203,232.139,183.203,232.139z"/>
	<path d="M100.997,326.494c3.589,0.557,15.609,3.168,14.971,5.781c-0.639,2.613,1.832,3.578-0.973,4.062
		c-2.804,0.482-8.662,1.748-10.595,1.748c-1.931,0-1.192-1.489-7.991-0.208c-6.798,1.281-3.273-3.665-1.153-6.475
		C95.256,331.401,98.036,326.034,100.997,326.494z"/>
	<path d="M90.859,344.039c4.825-0.147,10.621-0.608,11.587,1.806c0.966,2.415,0.966,2.656,0,3.864
		c-0.966,1.208-2.656,1.449-3.864,1.69c-1.207,0.241,0.725,0-4.588,0.241c-5.311,0.242-4.346,1.065-6.277-0.966
		C85.785,348.643,87.729,344.134,90.859,344.039z"/>
	<path d="M37.817,298.519c1.316,0.564,3.231,2.155,4.896,3.69c2.148,1.978,2.92,5.037,1.977,7.8l-0.919,2.688
		c-5.313-1.139-8.209-2.283-8.209-2.283l-5.47-2.284l-1.726-3.864L37.817,298.519z"/>
	<path d="M21.219,310.881c4.684,2.85,5.671,5.25,5.671,5.25s3.16,4.192,0,5.001c-3.16,0.809-3.595,1.122-5.671,0
		c-2.077-1.123,2.511-0.639-2.077-1.123c-4.588-0.483-8.483-0.629-6.797-2.39C14.032,315.859,21.219,310.881,21.219,310.881z"/>
	<path d="M90.859,200.238c1.879,2.676,2.818,4.693,0,6.383c-2.818,1.69-4.746,4.381-5.248,2.241c0,0-6.221,0.792-2.592-3.484
		C86.648,201.103,89.089,197.717,90.859,200.238z"/>
	<path d="M163.809,266.745c-2.548,2.312-4.041,2.584-2.358,4.793c1.684,2.21,1.689,11.23,3.689,6.473
		C167.139,273.254,166.911,263.93,163.809,266.745z"/>
	<path d="M160.736,288.476c-3.577,2.932-6.539,4.208-4.605,6.571c1.933,2.363-0.593,8.638,2.636,5.02
		C161.996,296.447,164.271,285.579,160.736,288.476z"/>
	<path d="M79.15,208.172c2.016-3.206,4.841-6.701,7.97-9.961c3.018-3.258,6.155-6.788,9.546-9.52
		c3.378-2.754,6.294-4.022,8.036-4.513c1.77-0.469,2.362-0.364,1.781-0.117c-0.292,0.13-0.626,0.362-1.046,0.674
		c-0.404,0.342-0.902,0.747-1.499,1.27c-1.18,1.02-2.826,2.443-5.176,4.474c-2.361,2.011-4.274,4.094-5.871,5.898
		c-1.589,1.815-2.851,3.384-3.784,4.558c-0.921,1.173-1.234,1.388-2.081,2.159c-0.419,0.382-0.966,0.892-1.728,1.742
		c-0.757,0.849-1.762,2.028-2.906,3.817c-2.293,3.582-3.045,5.818-3.452,6.93c-0.386,1.123-0.847,1.084-1.021-0.295
		c-0.105-1.345,0.125-3.169,0.491-4.601C78.765,209.249,79.15,208.172,79.15,208.172z"/>
	<path d="M106.56,181.835c0.46-0.387,1.647-1.764,3.419-3.352c1.761-1.605,4.066-3.492,6.537-5.216
		c1.238-0.861,2.508-1.69,3.793-2.414c0.637-0.357,1.314-0.695,1.947-0.976c0.619-0.27,1.231-0.535,1.836-0.758
		c1.207-0.445,2.371-0.757,3.421-0.785c1.048-0.05,1.926,0.225,2.39,0.452c0.725,0.366,1.301,0.893,1.766,1.527
		c0.495,0.74,0.636,1.403,0.802,2.013c0.285,1.221,0.411,2.311,0.514,3.29c0.19,1.948,0.211,3.454,0.065,4.053
		c-0.268,1.158-0.875,1.81-2.092,1.217c-1.242-0.592-1.656-0.874-1.389-1.875c0.136-0.5,0.632-2.29,0.8-4.233
		c0.086-0.962,0.089-1.969-0.075-2.744c-0.099-0.387-0.188-0.653-0.384-0.865c-0.176-0.247-0.384-0.389-0.546-0.495
		c-0.874-0.505-2.113-0.343-3.342,0.083c-0.617,0.212-1.238,0.481-1.862,0.779c-0.623,0.296-1.284,0.629-1.836,0.943
		c-2.326,1.371-4.519,3.098-6.378,4.686c-1.858,1.606-3.392,3.137-4.447,4.359c-1.057,1.223-1.643,2.116-1.796,2.458
		c-0.344,0.695-0.623,0.848-1.055,0.834c-0.422-0.02-0.916-0.251-1.402-0.492c-0.489-0.237-0.872-0.664-1.02-1.161
		C106.067,182.658,106.175,182.137,106.56,181.835z"/>
	<path d="M130.932,180.754c1.93-0.256,4.259-1.007,6.912-1.391c1.402-0.186,2.535-0.238,3.74-0.401
		c1.187-0.156,2.356-0.309,3.47-0.456c2.223-0.299,3.818-0.44,4.818-0.447c0.995-0.013,1.389,0.141,1.064,0.275
		c-0.324,0.13-0.694,0.612-1.446,1.181c-0.748,0.565-1.887,1.237-3.659,1.607c-1.768,0.37-3.364,0.656-4.734,0.898
		c-0.682,0.122-1.306,0.233-1.864,0.332c-0.503,0.102-0.941,0.225-1.309,0.346c-0.737,0.256-0.962,0.22-1.588,0.218
		c-0.631,0.001-1.639,0.063-4.057,0.633c-2.437,0.575-4.076,0.383-4.787,0.016c-0.723-0.362-0.603-0.826,0.062-1.027
		C128.91,182.136,130.932,180.754,130.932,180.754z"/>
	<path d="M155.277,173.001c0.892-1.094,1.875-2.266,2.968-3.467c0.549-0.6,1.124-1.207,1.748-1.808
		c0.617-0.591,1.291-1.231,2.125-1.759c0.79-0.556,1.705-1.024,2.72-1.337c0.533-0.108,1.033-0.303,1.612-0.285l0.845-0.018
		c0.282,0.008,0.568,0.082,0.85,0.129c1.143,0.186,2.175,0.798,3.003,1.508c0.78,0.761,1.407,1.63,1.751,2.545
		c0.743,1.828,0.679,3.463,0.47,4.706c-0.159,0.616-0.298,1.161-0.495,1.612c-0.211,0.448-0.407,0.823-0.583,1.132
		c-0.858,1.17-1.274,1.361-1.089,0.93c0.184-0.442,0.237-1.223,0.203-2.391c-0.092-1.158-0.137-2.73-0.865-4.604
		c-0.352-0.946-0.988-1.668-1.674-2.089c-0.686-0.429-1.429-0.593-2.119-0.484c-1.387,0.144-2.439,1.011-3.122,1.617
		c-0.651,0.672-0.92,0.849-1.59,1.303c-0.648,0.49-1.793,1.305-3.77,3.815c-1.945,2.525-3.005,3.977-3.617,4.646
		c-0.585,0.686-1.044,0.574-0.917-0.483C154.021,176.195,155.277,173.001,155.277,173.001z"/>
	<path d="M52.117,243.126c-0.581-1.473-1.222-3.103-1.757-4.915c-0.522-1.81-0.991-3.821-0.79-6.112
		c0.019-0.564,0.197-1.158,0.335-1.747c0.214-0.664,0.488-1.155,0.769-1.647c0.57-0.959,1.208-1.787,1.883-2.564
		c1.354-1.547,2.854-2.879,4.46-3.957c1.602-1.074,3.183-1.751,4.613-2.045c1.433-0.297,2.745-0.113,3.571,0.335
		c0.834,0.445,1.141,0.982,1.246,1.227c0.107,0.253,0.029,0.283-0.18,0.1c-0.413-0.373-1.366-0.638-2.568-0.273
		c-1.209,0.345-2.71,1.205-4.808,2.663c-2.093,1.475-3.721,3.233-4.822,4.815c-0.548,0.785-0.96,1.572-1.13,2.163
		c-0.082,0.248-0.081,0.618-0.126,0.88c-0.021,0.288,0.014,0.581,0.017,0.829c0.127,1.046,0.098,1.353,0.104,2.245
		c0.042,0.883,0.117,2.426,1.516,5.8c1.449,3.346,2.292,5.413,2.439,6.512c0.168,1.091-0.304,1.183-0.993,0.325
		c-0.706-0.855-1.649-2-2.417-2.93C52.701,243.885,52.117,243.126,52.117,243.126z"/>
	<path d="M58.236,229.038c0.977-1.626,2.418-2.956,4.07-4.092c1.654-1.116,3.565-1.991,5.498-2.249
		c1.935-0.264,3.446,0.271,4.109,0.867c0.67,0.6,0.641,0.965,0.427,0.815c-0.234-0.137-0.715-0.118-1.346,0.013
		c-0.638,0.122-1.422,0.342-2.584,0.54c-2.368,0.465-4.02,1.728-4.777,2.517c-0.382,0.412-0.538,0.446-0.933,0.631
		c-0.195,0.093-0.451,0.225-0.789,0.483c-0.34,0.254-0.772,0.648-1.174,1.262c-0.375,0.62-0.552,1.055-0.665,1.413
		c-0.108,0.355-0.169,0.685-0.218,0.949c-0.099,0.534-0.407,0.771-0.825,0.301c-0.387-0.451-0.784-1.312-0.828-2.09
		c-0.026-0.373-0.028-0.731-0.001-0.965C58.222,229.188,58.236,229.038,58.236,229.038z"/>
	<path d="M63.596,232.912c0.86-0.977,1.867-1.99,3.028-2.906c1.157-0.91,2.465-1.711,3.813-2.126
		c1.345-0.42,2.454-0.303,3.062-0.081c0.632,0.259,0.752,0.513,0.562,0.519c-0.2,0.019-0.491,0.253-0.888,0.601
		c-0.403,0.319-0.918,0.736-1.751,1.053c-1.677,0.687-2.786,1.728-3.279,2.419c-0.261,0.338-0.368,0.373-0.684,0.494
		c-0.16,0.061-0.352,0.155-0.614,0.345c-0.271,0.181-0.597,0.468-0.965,0.915c-0.691,0.899-1.134,1.307-1.512,1.574
		c-0.407,0.263-0.79,0.254-0.843-0.209c-0.036-0.227-0.073-0.503-0.065-0.78c-0.01-0.287-0.014-0.6,0.019-0.855
		c0.027-0.274,0.052-0.517,0.069-0.693C63.578,233.014,63.596,232.912,63.596,232.912z"/>
	<path d="M75.486,240.228c0.008,2.083-0.204,4.556-1.356,6.976c-0.584,1.258-1.592,2.425-2.695,3.198
		c-1.099,0.795-2.23,1.296-3.246,1.678c-2.034,0.726-3.323,1.009-4.191,1.238c-0.843,0.223-1.26,0.198-1.016-0.011
		c0.24-0.202,0.401-0.745,0.945-1.447c0.528-0.708,1.483-1.52,2.943-2.169c1.453-0.643,2.61-1.335,3.306-2.104
		c0.725-0.761,0.972-1.506,1.11-2.13c0.124-0.625,0.244-0.758,0.51-1.2c0.229-0.437,0.707-1.232,0.708-3.221
		c-0.058-1.964-0.224-3.107-0.103-3.814c0.104-0.697,0.516-0.885,0.973-0.339c0.435,0.536,1.019,1.318,1.429,2.033
		C75.223,239.624,75.486,240.228,75.486,240.228z"/>
	<path d="M44.455,254.078c-1.001,0.928-2.035,1.938-3.116,3.001c-1.079,1.058-2.198,2.156-3.349,3.284
		c-2.242,2.241-4.476,4.632-6.09,7.339c-1.639,2.686-2.54,5.75-2.783,8.881c-0.108,1.52,0.001,2.973,0.413,4.139
		c0.417,1.163,1.115,2.02,2.146,2.665c1.033,0.639,2.278,1.023,3.488,1.255c1.214,0.238,2.395,0.349,3.479,0.419
		c2.175,0.13,3.966,0.12,5.3,0.148c2.676,0.031,3.552,0.23,2.591,0.404c-0.961,0.158-2.324,0.791-4.728,1.429
		c-1.204,0.31-2.673,0.619-4.511,0.734c-1.822,0.065-4.093,0.077-6.647-1.095c-1.254-0.599-2.427-1.471-3.253-2.588
		c-0.836-1.107-1.336-2.364-1.612-3.565c-0.55-2.427-0.333-4.63-0.088-6.584c0.538-3.967,1.993-7.105,3.188-9.236
		c1.236-2.127,1.796-2.585,3.123-3.895c0.67-0.628,1.552-1.456,2.906-2.726c1.356-1.261,3.107-2.868,5.494-5.302
		c2.398-2.431,4.487-4.268,6.231-5.536c1.747-1.269,3.129-1.98,4.059-2.309c1.884-0.621,1.855,0.051,0.4,1.279
		C48.143,248.705,44.455,254.078,44.455,254.078z"/>
	<path d="M149.053,202.625c-1.01,0.466-2.035,0.936-3.028,1.413c-1.416,0.625-4.099,1.94-6.599,3.247
		c-1.251,0.667-2.46,1.31-3.445,1.835c-0.979,0.546-1.766,0.933-2.19,1.037c-1.164,0.249-2.322,1.04-2.899,2.026
		c-0.578,0.993-0.534,2.189,0.711,3.447c1.018,1.029,2.125,1.076,3.028,0.68c0.904-0.397,1.616-1.263,1.951-2.01
		c0.211-0.492,1.987-2.237,4.188-3.906c2.174-1.696,4.714-3.361,5.969-4.169c1.301-0.89,2.617-1.585,3.574-1.919
		c0.689-0.265,5.02-2.192,10.394-4.237c5.369-2.055,11.759-4.282,16.25-5.88c4.429-1.57,6.95-2.464,8.513-3.019
		c1.578-0.528,2.198-0.72,2.808-0.895c2.48-0.74,1.57-5.784-1.683-3.434c-0.789,0.576-1.37,1.002-2.772,1.701
		c-1.398,0.709-3.618,1.687-7.747,3.283c-4.4,1.709-10.739,4-16.169,6.147C154.472,200.104,149.986,202.162,149.053,202.625z"/>
	<path d="M177.779,178.627c2.29-0.017,4.868-0.089,7.69-0.16c1.632,0.045,3.037,0.331,4.474,0.731
		c1.418,0.419,2.794,0.954,4.066,1.861c0.629,0.463,1.218,1.011,1.645,1.779c0.206,0.358,0.385,0.866,0.413,1.303
		c0.047,0.447-0.026,0.873-0.16,1.242c-0.29,0.738-0.719,1.156-1.077,1.422c-0.366,0.275-0.693,0.447-0.979,0.554
		c-1.14,0.413-1.553,0.256-1.227,0.066c0.311-0.209,0.715-0.776,1.082-1.619c0.188-0.424,0.273-0.886,0.124-1.209
		c-0.07-0.179-0.173-0.289-0.355-0.493c-0.18-0.195-0.458-0.413-0.781-0.646c-1.365-0.93-3.045-1.374-4.394-1.607
		c-1.373-0.227-2.539-0.229-3.22-0.064c-0.911,0.157-1.162,0.079-1.865-0.031c-0.696-0.1-1.853-0.285-4.473-0.161
		c-2.615,0.141-4.075,0.082-4.834-0.075c-0.753-0.134-0.938-0.566-0.185-1.013C175.174,179.682,177.779,178.627,177.779,178.627z"/>
	<path d="M177.346,196.032c-0.422,0.073-1.752,0.95-3.22,2.665c-1.482,1.681-3.126,4.052-4.649,6.533
		c-1.525,2.496-2.984,5.036-3.865,7.233c-0.922,2.185-1.393,3.964-1.581,4.682c-0.595,2.193-0.673,4.397-0.587,6.133
		c0.076,1.74,0.304,3.031,0.282,3.535c-0.02,1.01-0.228,1.467-1.234,1.465c-1.007-0.003-1.408-0.196-1.389-1.348
		c0.02-0.574,0.143-2.494,0.45-4.515c0.286-2.025,0.782-4.131,0.992-5.17c0.528-2.719,1.462-5.566,2.712-8.204
		c1.269-2.644,2.63-5.061,3.957-7.266c1.33-2.186,2.642-4.072,3.829-5.472c1.163-1.405,2.286-2.308,2.782-2.646
		c0.947-0.704,1.858-0.72,2.236-0.471c0.397,0.245,0.367,0.655,0.374,1.057c-0.011,0.413-0.212,0.803-0.37,1.135
		C177.898,195.691,177.701,195.944,177.346,196.032z"/>
	<path d="M168.989,276.071c-0.938,5.828-2.228,12.841-4.54,19.9c-2.279,7.046-5.679,14.126-10.065,19.691
		c-4.382,5.58-8.572,8.43-11.075,9.84c-2.549,1.389-3.496,1.478-2.647,0.913c0.839-0.592,1.878-1.798,3.537-3.74
		c1.647-1.957,3.927-4.616,6.942-8.582c3.01-3.982,5.108-8.004,6.595-11.531c1.484-3.535,2.372-6.586,2.915-8.854
		c0.529-2.274,0.799-2.881,1.43-4.607c0.583-1.733,1.664-4.578,2.737-11.536c0.997-6.959,1.522-11.128,2.065-13.048
		c0.065-0.24,0.129-0.445,0.189-0.612l0.09-0.208l0.006-0.003c0,0-0.021,0.003,0.117-0.021c0.117-0.028,0.129-0.002,0.196-0.025
		l0.119-0.036c0.119,0.061,0.197,0.033,0.366,0.063l-0.013,0.007l-0.054,0.066c-0.14,0.195-0.268,0.279-0.388,0.229l-0.169-0.169
		l-0.072-0.165l-0.009-0.085l0.011-0.061l0.004-0.015l0.089-0.125l0.393-0.03c0.161,0.143,0.104,0.128,0.119,0.131l0.009,0.019
		l0.037,0.103l0.047,0.128c0.11,0.305,0.189,0.711,0.239,1.23c0.196,2.066,0.436,4.832,0.574,7.102
		C168.927,274.308,168.989,276.071,168.989,276.071z"/>
	<path d="M165.582,228.878c3.304,0.159,7.157,0.649,11.045,1.105c0.971,0.107,1.947,0.218,2.908,0.295
		c0.504,0.048,0.906,0.073,1.383,0.084l1.444,0.021c1.955,0.015,3.931,0.036,5.82,0.186c3.773,0.287,6.512,1.071,7.98,2.146
		c0.738,0.524,1.079,1.139,1.114,1.449c0.049,0.306-0.043,0.297-0.201,0.045c-0.364-0.534-1.292-0.744-2.638-0.789
		c-1.369-0.057-3.255-0.001-5.994-0.118c-2.749-0.118-5.229-0.001-7.416,0.048c-2.286,0.008-4.013-0.132-5.348-0.141
		c-1.314-0.026-1.669-0.152-2.66-0.399c-0.984-0.218-2.619-0.687-6.392-0.887c-3.756-0.149-5.918-0.023-7.033-0.174
		c-1.107-0.138-1.103-0.606-0.025-1.047c1.066-0.418,2.548-0.961,3.792-1.277C164.603,229.085,165.582,228.878,165.582,228.878z"/>
	<path d="M194.21,257.282c-1.896-0.107-3.822-0.268-5.702-0.444c-2.621-0.251-7.815-0.74-12.637-0.846
		c-4.775-0.151-9.107-0.64-10.352-1.114c-1.712-0.596-3.771-1.038-5.43-1.016c-1.645,0.034-3.049,0.513-3.513,2.229
		c-0.372,1.391,0.945,2.657,2.758,3.301c1.804,0.669,3.986,0.736,5.345,0.422c0.448-0.098,1.819-0.121,3.683-0.179
		c1.864-0.057,4.219-0.162,6.663-0.3c2.459-0.143,4.936-0.288,7.184-0.293c2.243-0.021,4.216,0.012,5.517,0.017
		c2.744,0.018,5.337,0.128,7.099,0.317c0.322,0.033,1.083,0.094,2.203,0.149c1.128,0.033,2.583,0.16,4.379,0.058
		c0.893-0.039,1.858-0.03,2.878-0.221c0.511-0.073,1.036-0.149,1.575-0.229c0.534-0.118,1.075-0.281,1.632-0.427
		c2.195-0.632,4.583-1.7,6.535-3.527c1.98-1.78,3.514-4.132,4.614-6.629c1.105-2.503,1.859-5.142,2.426-7.73
		c0.555-2.591,0.985-5.138,1.349-7.54c0.381-2.444,0.527-4.782,0.598-6.87c0.128-4.115,0.018-7.319-0.028-9.857
		c-0.048-2.533-0.084-4.406-0.111-5.841c-0.021-2.86,0.057-3.953,0.115-5.025c0.119-2.148-0.981-3.773-2.077-4.071
		c-1.073-0.306-2.216,0.927-1.737,4.48c0.235,1.707,0.446,2.941,0.685,5.68c0.12,1.37,0.256,3.109,0.395,5.464
		c0.13,2.351,0.29,5.32,0.236,9.109c-0.037,2.024-0.143,4.229-0.477,6.547c-0.333,2.376-0.727,4.866-1.238,7.372
		c-0.526,2.496-1.219,4.996-2.212,7.299c-0.987,2.3-2.326,4.376-4.018,5.928c-1.664,1.592-3.727,2.529-5.712,3.114
		c-0.505,0.13-0.988,0.294-1.48,0.393c-0.501,0.075-0.99,0.148-1.465,0.22c-0.942,0.191-1.88,0.159-2.736,0.216
		c-1.714,0.095-3.277-0.002-4.454-0.034C195.51,257.345,194.653,257.303,194.21,257.282z"/>
	<path d="M197.165,235.969c0.738-1.625,3.629-11.147,4.762-21.146c0.137-1.248,0.25-2.5,0.337-3.742
		c0.069-1.255,0.161-2.464,0.102-3.625c-0.098-2.355-0.461-4.65-0.687-6.755c-0.238-2.103-0.344-4.031-0.218-5.618
		c0.109-1.583,0.44-2.817,0.655-3.453c0.621-2.016,1.484-3.923,2.516-5.601c1.03-1.681,2.221-3.124,3.377-4.313
		c2.337-2.361,4.47-3.732,5.335-4.162c1.764-0.83,2.693-0.857,3.124,0.304c0.448,1.196,0.304,1.733-1.417,2.513
		c-0.847,0.396-3.784,1.696-6.269,3.961c-1.248,1.112-2.368,2.439-3.168,3.731c-0.805,1.291-1.308,2.52-1.572,3.344
		c-0.325,1.097-0.596,2.182-0.66,3.319c-0.078,1.139-0.024,2.313,0.085,3.499c0.219,2.378,0.693,4.802,0.985,7.31
		c0.145,1.249,0.242,2.545,0.218,3.83c-0.021,1.234-0.072,2.455-0.142,3.656c-0.149,2.401-0.394,4.718-0.685,6.9
		c-1.197,8.733-2.972,15.291-3.237,16.839c-0.608,3.089-1.589,2.802-2.552,2.522C197.084,238.995,196.533,237.31,197.165,235.969z"
		/>
	<path d="M91.111,313.358c1.999-0.33,4.21,0.162,5.965,1.476c1.76,1.293,3.031,3.167,3.782,5.184
		c0.742,2.033,1.048,4.241,0.686,6.629c-0.201,1.197-0.531,2.438-1.301,3.757c-0.188,0.328-0.41,0.66-0.677,0.994
		c-0.146,0.192-0.225,0.277-0.309,0.373l-0.264,0.294c-0.355,0.392-0.73,0.79-1.109,1.176c-1.943,1.989-4.358,4.533-6.567,7.685
		c-2.143,3.131-4.178,7.02-4,11.194c0.08,2.066,0.77,4.147,1.94,5.961c1.172,1.824,2.827,3.379,4.649,4.664
		c3.678,2.571,7.869,4.19,11.607,5.476c3.767,1.277,8.341,2.784,13.05,4.697c4.68,1.943,9.622,4.331,13.35,8.045
		c1.839,1.843,3.296,4.132,3.808,6.581c0.348,1.154,0.342,2.607-0.186,3.799c-0.518,1.217-1.458,2.057-2.344,2.629
		c-1.812,1.138-3.536,1.596-4.941,2.003c-1.414,0.377-2.547,0.614-3.332,0.782c-3.144,0.653-5.964,1.435-8.001,2.202
		c-2.071,0.748-3.206,1.451-4.021,1.332c-0.422-0.067-0.584-0.309-0.469-0.738c0.106-0.429,0.52-1.027,1.19-1.584
		c1.337-1.155,3.597-2.066,5.68-2.543c0.518-0.119,1.562-0.358,3.005-0.689c1.427-0.323,3.246-0.7,5.217-1.256
		c0.978-0.283,1.998-0.617,2.947-1.055c0.954-0.428,1.813-1.004,2.278-1.64c0.439-0.639,0.597-1.287,0.354-2.322
		c-0.235-1.059-0.605-2.118-1.257-3.082c-1.229-1.96-3.147-3.627-5.162-4.997c-2.026-1.374-4.16-2.482-6.125-3.415
		c-3.961-1.827-7.233-3.023-8.579-3.683c-1.367-0.675-3.94-1.566-7.246-2.612c-3.281-1.066-7.235-2.339-10.953-4.337
		c-3.706-1.929-7.172-4.925-8.83-8.246c-1.709-3.275-1.813-6.201-1.699-7.214c0.178-2.088,0.845-5.625,2.395-8.808
		c1.48-3.215,3.472-6.211,4.936-8.182c0.727-0.978,1.591-2.14,2.53-3.402c0.461-0.623,0.939-1.27,1.428-1.932l0.363-0.497
		c0.093-0.143,0.128-0.212,0.197-0.325c0.116-0.232,0.231-0.488,0.326-0.778c0.387-1.161,0.504-2.613,0.357-3.915
		c-0.131-1.312-0.51-2.499-0.983-3.361c-0.45-0.851-1.015-1.78-1.73-2.458c-0.694-0.695-1.656-1.152-2.858-1.383
		c-0.64-0.096-1.072-0.214-1.306-0.399c-0.232-0.19-0.267-0.439-0.136-0.71C89.019,314.193,89.998,313.509,91.111,313.358z"/>
	<path d="M143.269,331.405c-1.44,2.948-3.323,6.405-5.682,9.678c-2.337,3.283-5.092,6.384-7.75,8.888
		c-2.668,2.501-4.647,4.008-5.895,4.894c-1.201,0.899-1.812,1.068-1.488,0.624c0.326-0.432,0.455-1.347,1.056-2.659
		c0.58-1.325,1.619-3.041,3.509-5.026c3.8-3.952,6.301-7.466,7.407-9.699c0.571-1.104,0.818-1.345,1.495-2.052
		c0.623-0.73,1.734-1.918,3.313-5.229c0.782-1.657,1.343-2.996,1.905-4.01c0.513-1.025,0.94-1.75,1.344-2.18
		c0.791-0.87,1.325-0.591,1.227,0.538c-0.047,0.561-0.072,1.229-0.086,1.923c-0.033,0.687-0.108,1.385-0.145,2.029
		C143.417,330.414,143.269,331.405,143.269,331.405z"/>
	<path d="M133.134,359.684c4.309,3.849,9.846,8.428,14.277,14.476c0.548,0.754,1.109,1.505,1.609,2.301l0.772,1.181
		c0.249,0.406,0.476,0.845,0.713,1.266l0.703,1.279l0.572,1.358c0.418,0.888,0.679,1.847,0.944,2.8
		c1.094,3.814,0.665,8.058-0.932,11.47c-1.644,3.426-4.087,5.578-6.156,7.005c-0.538,0.333-1.049,0.647-1.531,0.946
		c-0.498,0.264-0.983,0.481-1.429,0.695c-0.883,0.453-1.72,0.676-2.403,0.919c-2.8,0.785-3.694,0.702-2.728,0.376
		c0.482-0.177,1.06-0.469,1.795-0.858c0.35-0.227,0.741-0.479,1.18-0.764c0.439-0.272,0.917-0.583,1.411-0.98
		c0.497-0.392,1.08-0.755,1.632-1.276c0.571-0.491,1.205-1.005,1.807-1.659c0.659-0.597,1.235-1.361,1.91-2.139
		c0.29-0.423,0.592-0.863,0.906-1.32c0.327-0.448,0.544-0.984,0.846-1.496c1.076-2.123,1.496-4.392,1.43-6.498
		c0.014-1.06-0.218-2.07-0.385-3.042c-0.125-0.48-0.289-0.943-0.426-1.4c-0.071-0.228-0.142-0.454-0.211-0.677
		c-0.082-0.221-0.189-0.431-0.28-0.641c-1.463-3.367-3.507-5.859-4.97-7.629c-1.532-1.733-1.905-2.27-3.024-3.712
		c-1.143-1.42-3.029-3.75-8.428-8.357c-5.448-4.566-8.474-7.695-9.594-9.361c-1.145-1.651-0.572-1.732,1.007-0.452
		c1.59,1.275,3.821,2.829,5.679,4.045C131.696,358.752,133.134,359.684,133.134,359.684z"/>
	<path d="M126.989,400.641c-3.309,0.768-7.77,2.255-11.154,3.783c-1.705,0.75-2.814,1.387-3.538,1.753
		c-0.701,0.386-1.046,0.437-0.84,0.225c0.217-0.195,0.318-0.701,0.769-1.342c0.43-0.656,1.193-1.494,2.547-2.228
		c2.721-1.4,4.971-2.268,6.244-2.889c1.272-0.601,0.844-0.036,4.807-1.166c1.968-0.57,3.169-0.723,3.795-0.66
		c0.628,0.072,0.667,0.396,0.144,0.709C128.73,399.466,126.989,400.641,126.989,400.641z"/>
	<path d="M134.187,402.665c-1.844,0.905-4.127,2.91-6.578,3.769c-1.214,0.428-2.165,0.453-2.727,0.368
		c-0.565-0.087-0.759-0.252-0.583-0.302c0.363-0.115,0.827-1.063,2.423-1.758c1.617-0.723,2.747-1.651,3.353-2.257
		c0.608-0.621,0.513-0.053,2.676-1.417c2.189-1.373,3.165-0.684,2.638-0.135C134.871,401.484,134.187,402.665,134.187,402.665z"/>
	<path d="M37.375,297.213c-6.186,3.453-11.27,6.514-16.472,10.488c-1.291,1.005-2.619,2.024-3.916,3.191
		c-1.34,1.114-2.63,2.389-3.989,3.725c-2.642,2.746-5.403,5.957-7.869,10.109c-2.442,4.156-3.818,7.729-4.503,10.833
		c-0.688,3.101-0.737,5.685-0.492,7.984c0.257,2.301,0.796,4.334,1.618,6.434c0.831,2.096,1.96,4.27,3.62,6.753
		c1.663,2.483,2.917,4.117,3.915,5.479c1.005,1.355,1.778,2.412,2.607,3.603c0.817,1.195,1.721,2.508,2.849,4.409
		c1.11,1.901,2.527,4.387,3.717,8.042c0.135,0.459,0.261,0.888,0.38,1.292c0.095,0.407,0.182,0.787,0.265,1.14
		c0.172,0.714,0.205,1.189,0.231,1.639c0.024,0.865-0.126,1.34-0.194,1.65c-0.212,0.586-0.16,0.503-0.073,0.329
		c0.094-0.17,0.238-0.441,0.209-0.192c-0.017,0.124-0.06,0.387-0.25,0.838c-0.216,0.44-0.582,1.083-1.496,1.868
		c-1.863,1.563-4.119,2.569-5.932,3.485c-1.848,0.901-3.385,1.689-4.551,2.402c-1.17,0.711-1.976,1.323-2.475,1.76
		c-0.5,0.438-0.711,0.673-0.711,0.673c3.866-1.567,7.705-1.805,11.717-2.885c1.973-1.037,4.048-2.254,5.627-4.289
		c0.777-1.011,1.333-2.265,1.547-3.545c0.221-1.284,0.115-2.557-0.151-3.725c-1.097-4.44-3.216-8.375-5.668-11.984
		c0,0-0.768-1.277-2.101-3.232c-1.321-1.961-3.248-4.566-5.232-7.417c-1.988-2.848-3.964-6.004-5.205-9.088
		c-1.274-3.078-1.671-6.052-1.652-8.204c-0.003-2.155,0.438-4.587,1.34-7.004c0.246-0.598,0.495-1.201,0.746-1.808
		c0.304-0.592,0.608-1.186,0.914-1.782c0.563-1.212,1.332-2.33,2.037-3.454c2.92-4.462,6.566-8.079,9.022-10.424
		c2.434-2.371,6.144-5.953,10.727-9.479c4.559-3.543,9.936-7.049,15.109-9.7c2.591-1.313,4.363-2.322,5.363-3.024
		c0.994-0.712,1.204-1.14,0.681-1.228C47.658,292.724,43.588,293.783,37.375,297.213z"/>
	<path d="M19.171,395.703c-3.836,0.93-8.574,4.198-13.007,6.187c-2.224,0.991-3.939,1.385-4.969,1.492
		c-1.034,0.104-1.381-0.011-1.044-0.133c0.689-0.264,1.722-1.517,4.889-3.081c3.18-1.598,5.593-3.201,7.022-4.148
		c0.713-0.479,0.963-0.532,1.6-0.748c0.657-0.189,1.669-0.604,4.106-1.484c2.46-0.861,4.09-0.816,4.818-0.621
		c0.737,0.193,0.645,0.553-0.031,0.78c-0.684,0.206-1.548,0.65-2.222,1.019C19.663,395.374,19.171,395.703,19.171,395.703z"/>
	<path d="M26.99,397.224c-3.113,0.883-6.96,3.614-10.114,5.753c-3.152,2.138-4.722,2.805-4.363,2.356
		c0.398-0.401,0.564-1.978,2.965-3.858c2.413-1.829,4.342-3.291,5.474-4.151c0.563-0.449,0.779-0.486,1.309-0.677
		c0.542-0.173,1.383-0.52,3.371-1.329c2.012-0.785,3.397-0.778,4.022-0.55c0.625,0.209,0.544,0.567,0,0.776
		c-0.551,0.192-1.235,0.615-1.759,0.983C27.368,396.905,26.99,397.224,26.99,397.224z"/>
	<path d="M79.357,321.437c-5.271,0.488-11.584,1.774-17.779,4.029c-6.207,2.22-12.282,5.315-17.366,8.759
		c-1.227,0.915-2.415,1.703-3.457,2.495c-1.014,0.822-1.958,1.559-2.823,2.224c-1.589,1.466-3.002,2.519-3.903,3.444
		c-1.903,1.765-2.691,2.197-2.097,1.451c0.296-0.372,0.596-0.888,0.976-1.576c0.392-0.678,0.804-1.582,1.53-2.548
		c0.348-0.497,0.739-1.039,1.184-1.629c0.225-0.294,0.454-0.607,0.713-0.918c0.275-0.294,0.562-0.601,0.863-0.923
		c0.609-0.637,1.281-1.324,2.036-2.045c0.798-0.667,1.674-1.374,2.637-2.118c7.884-5.727,15.123-8.762,19.312-10.534
		c2.126-0.817,2.774-0.95,4.526-1.302c0.882-0.152,2.04-0.363,3.798-0.74c1.777-0.289,4.148-0.789,7.504-1.257
		c3.354-0.477,6.058-0.603,8.144-0.557c2.085-0.007,3.558,0.263,4.479,0.452c1.844,0.427,1.515,0.957-0.373,1.182
		c-0.944,0.125-2.046,0.247-3.155,0.478c-1.104,0.233-2.229,0.472-3.237,0.684C80.87,320.997,79.357,321.437,79.357,321.437z"/>
	<path d="M33.849,355.773c0.474,5.318,2.472,11.719,5.297,17.905c1.513,3.243,2.776,6.931,3.079,10.726
		c0.32,3.79-0.425,7.757-2.283,10.968c-1.847,3.236-4.458,5.183-6.664,6.294c-0.276,0.146-0.54,0.298-0.806,0.423
		c-0.274,0.106-0.541,0.209-0.8,0.31c-0.517,0.191-1.004,0.371-1.461,0.54c-0.938,0.246-1.758,0.415-2.45,0.558
		c-2.818,0.328-3.659,0.136-2.701-0.083c0.483-0.117,1.069-0.348,1.811-0.661c0.742-0.314,1.597-0.852,2.667-1.408
		c0.507-0.341,1.061-0.705,1.67-1.088c0.599-0.401,1.186-0.927,1.869-1.419c1.236-1.145,2.662-2.486,3.838-4.436
		c1.165-1.953,1.744-4.084,1.953-6.111c0.259-2.035-0.052-3.978-0.335-5.722c-0.236-0.865-0.425-1.696-0.675-2.47
		c-0.287-0.767-0.545-1.496-0.817-2.172c-0.628-1.324-1.179-2.465-1.763-3.543c-1.072-2.107-1.239-2.772-1.749-4.553
		c-0.249-0.891-0.576-2.065-1.079-3.867c-0.49-1.803-1.148-4.24-1.763-7.747c-0.588-3.516-0.566-6.44-0.198-8.662
		c0.403-2.224,1.023-3.729,1.609-4.565c1.158-1.672,1.47-1.036,0.96,0.765c-0.433,1.873-0.367,4.441-0.019,6.467
		c0.153,1.016,0.368,1.904,0.535,2.539C33.726,355.393,33.849,355.773,33.849,355.773z"/>
	<path d="M49.266,292.379c0.238-4.319,0.82-9.403,2.091-14.627c0.656-2.633,1.647-5.301,2.954-7.71
		c1.308-2.414,2.872-4.595,4.454-6.528c3.202-3.832,5.671-6.15,7.131-7.573c1.466-1.403,2.067-1.738,1.637-1.14
		c-0.431,0.596-0.829,1.668-1.732,3.308c-0.89,1.646-2.333,3.823-4.587,6.681c-2.248,2.861-3.937,5.625-5.009,8.121
		c-1.069,2.508-1.549,4.661-1.801,6.323c-0.246,1.655-0.413,2.105-0.774,3.375c-0.182,0.635-0.401,1.479-0.645,2.792
		c-0.244,1.311-0.522,3.099-0.652,5.603c-0.247,5.014,0.018,7.901,0.005,9.319c0.009,1.419-0.469,1.408-1.072-0.014
		c-0.545-1.415-1.113-3.383-1.458-5.019c-0.182-0.816-0.313-1.545-0.399-2.068C49.319,292.697,49.266,292.379,49.266,292.379z"/>
	<path d="M214.304,195.373c0.638-1.061,0.558-2.951-0.188-4.508c-0.236-0.454-0.475-0.912-0.714-1.37
		c-0.246-0.537-0.473-1.098-0.618-1.714c-0.159-0.605-0.215-1.271-0.179-1.925c0.061-0.654,0.207-1.305,0.474-1.856
		c0.513-1.122,1.201-1.795,1.766-2.277c0.573-0.484,1.074-0.773,1.462-0.968c0.781-0.372,1.12-0.355,0.908-0.156
		c-0.213,0.201-0.372,0.68-0.699,1.362c-0.309,0.689-0.833,1.564-1.353,2.681c-0.517,1.129-0.286,2.243,0.111,3.141
		c0.198,0.45,0.44,0.85,0.682,1.195c0.134,0.201,0.259,0.391,0.376,0.567c0.135,0.195,0.24,0.384,0.34,0.559
		c0.395,0.702,0.39,0.956,0.436,1.578c0.012,0.313,0.045,0.721,0.032,1.347c-0.018,0.624-0.019,1.476-0.377,2.652
		c-0.362,1.18-1.078,1.991-1.71,2.408c-0.637,0.433-1.18,0.526-1.524,0.507c-0.688-0.037-0.678-0.443-0.257-0.781
		c0.431-0.359,0.832-0.974,0.943-1.51C214.345,195.771,214.304,195.373,214.304,195.373z"/>
	<path d="M217.655,177.835c0.661-1.105,1.518-2.24,2.644-3.212c1.113-0.96,2.537-1.766,4.094-1.878
		c0.383-0.029,0.764,0.026,1.089,0.064c0.338,0.079,0.642,0.197,0.897,0.305c0.502,0.301,0.86,0.569,1.019,0.885
		c0.345,0.584,0.264,0.844,0.118,0.742c-0.166-0.088-0.532-0.111-1.007-0.01c-0.477,0.071-0.969,0.223-1.687,0.282
		c-1.513,0.245-2.527,1.269-2.884,1.91c-0.188,0.327-0.29,0.354-0.568,0.472c-0.243,0.134-0.727,0.373-1.249,1.275
		c-0.47,0.889-0.784,1.341-1.117,1.673c-0.348,0.324-0.725,0.387-0.867-0.028c-0.172-0.398-0.321-0.992-0.403-1.524
		c-0.025-0.267-0.048-0.503-0.064-0.673C217.652,177.936,217.655,177.835,217.655,177.835z"/>
	<path d="M221.941,198.846c1.587-1.61,3.532-3.302,5.378-5.02l0.662-0.64l0.618-0.65c0.453-0.495,0.918-0.977,1.388-1.446
		c0.942-0.936,1.916-1.807,2.891-2.575c3.93-3.035,6.246-3.218,5.665-2.784c-0.564,0.468-0.969,2.29-3.679,4.658
		c-1.35,1.194-2.476,2.363-3.363,3.414c-0.828,1.024-1.688,2.089-2.234,2.735c-0.556,0.686-0.79,0.785-1.366,1.133
		c-0.553,0.356-1.546,0.916-3.22,2.647c-0.818,0.872-1.411,1.541-1.87,2.053c-0.418,0.514-0.755,0.88-0.99,1.14
		c-0.492,0.534-0.948,0.536-0.982-0.336c0.012-0.823,0.243-1.938,0.534-2.814C221.661,199.492,221.941,198.846,221.941,198.846z"/>
	<path d="M236.588,178.747c-0.08-0.114-0.163-0.22-0.309-0.354c-0.152-0.143-0.312-0.275-0.478-0.398
		c-0.332-0.244-0.689-0.436-1.037-0.541c-0.351-0.11-0.678-0.116-1.004-0.049c-0.163,0.039-0.328,0.096-0.497,0.181
		c-0.086,0.04-0.165,0.093-0.258,0.144l-0.339,0.218c-1.795,1.161-3.451,2.716-4.182,4.222c-0.749,1.463-0.538,2.71-0.391,3.579
		c0.218,0.826,0.186,1.24,0,0.966c-0.178-0.273-0.695-0.485-1.288-1.194c-0.268-0.362-0.584-0.849-0.734-1.537
		c-0.102-0.338-0.091-0.725-0.101-1.142c0.052-0.408,0.103-0.864,0.286-1.305c0.327-0.894,0.785-1.657,1.274-2.294
		c0.477-0.656,0.989-1.192,1.464-1.684c0.968-0.957,1.836-1.671,2.489-2.195c0.336-0.279,0.694-0.456,0.979-0.547
		c0.307-0.091,0.599-0.14,1.032-0.148c0.426-0.008,1.012,0.018,1.788,0.261c0.774,0.239,1.694,0.73,2.675,1.572
		c0.548,0.456,0.995,1.086,1.197,1.697c0.204,0.614,0.209,1.143,0.174,1.549c-0.088,0.814-0.296,1.278-0.471,1.592
		c-0.359,0.615-0.746,0.518-0.864-0.154c-0.11-0.66-0.344-1.564-0.706-1.969C236.942,178.81,236.585,178.764,236.588,178.747z"/>
	<path d="M234.491,182.257c-0.341,0.163-0.596,0.626-0.794,1.13c-0.203,0.509-0.367,1.061-0.658,1.521
		c-0.567,0.902-1.614,1.194-1.594,1.026c0.035-0.158-0.92-0.754-0.617-1.704c0.308-0.916,0.416-1.723,0.434-2.279
		c0.003-0.276,0.106-0.308,0.286-0.423c0.191-0.113,0.442-0.312,0.948-0.896c0.537-0.593,1.203-0.621,1.54-0.395
		c0.342,0.213,0.446,0.594,0.383,0.779c-0.076,0.182-0.08,0.514-0.038,0.771C234.42,182.056,234.491,182.257,234.491,182.257z"/>
	<path d="M229.044,176.232c-0.492-0.049-1.11,0.049-1.687,0.265c-0.282,0.105-0.575,0.247-0.753,0.381
		c-0.136,0.108-0.426,0.387-0.66,0.65c-0.982,1.098-1.931,2.436-2.578,3.506c-0.134,0.234-0.258,0.452-0.372,0.652
		c-0.076,0.115-0.137,0.119-0.186,0.23c-0.099,0.189-0.052,0.443,0.066,0.619c0.099,0.181,0.305,0.333,0.378,0.442
		c0.082,0.109,0.074,0.173-0.037,0.161c-0.213-0.044-0.572,0.28-1.359,0.072c-0.371-0.12-0.768-0.477-0.906-1.084
		c-0.08-0.302-0.069-0.667-0.022-0.998c0.052-0.3,0.137-0.611,0.271-0.908c0.535-1.189,1.131-2.09,1.63-2.891
		c0.523-0.802,0.957-1.466,1.278-1.959c0.36-0.511,0.52-0.602,1.122-0.873c0.577-0.2,1.318-0.532,3.172-0.792
		c0.939-0.11,1.777,0.051,2.376,0.404c0.609,0.338,0.89,0.858,0.926,1.176c0.047,0.672-0.424,0.666-0.715,0.495
		c-0.345-0.189-0.879-0.108-1.268,0.065C229.325,176.014,229.044,176.232,229.044,176.232z"/>
	<path d="M233.857,181.271c0.177,0.431,0.992,0.249,1.447,0.764c0.475,0.532,0.151,1.561,0.066,1.504
		c-0.088-0.051-0.74,0.749-1.093,0.568c-0.371-0.188-0.81-0.113-1.128,0.009c-0.324,0.114,0.008-0.267-0.608-0.639
		c-0.663-0.442,0.118-1.516,0.406-1.598C233.242,181.791,233.857,181.271,233.857,181.271z"/>
	<path d="M132.54,221.324c-0.801,0.393-1.74,0.828-2.913,0.953c-0.58,0.063-1.232-0.004-1.786-0.13
		c-0.581-0.146-1.213-0.385-1.776-0.849c-0.565-0.456-0.988-1.15-1.155-1.826c-0.176-0.679-0.174-1.325-0.11-1.918
		c0.139-1.188,0.52-2.204,0.938-3.118c0.872-1.809,1.776-2.841,2.339-3.427c0.572-0.577,0.852-0.693,0.719-0.443
		c-0.24,0.507-0.227,1.863-1.351,4.374c-0.54,1.26-0.824,2.48-0.742,3.386c0.078,0.935,0.524,1.29,0.886,1.427
		c0.395,0.132,0.509,0.204,0.884,0.379c0.211,0.075,0.439,0.187,0.843,0.194c0.401,0.017,0.992-0.07,1.794-0.464
		c1.586-0.836,2.601-1.503,3.198-1.622c0.588-0.147,0.712,0.135,0.338,0.582c-0.373,0.464-0.876,1.088-1.286,1.597
		C132.928,220.936,132.54,221.324,132.54,221.324z"/>
	<path d="M476.113,124.592c-3.617,2.386-1.308,6.986,1.773,6.508c3.082-0.477,5.579-1.694,5.572,2.816
		c-0.007,4.511-0.712,9.305,2.833,7.794c3.545-1.51,5.853-7.544,6.472-3.641c0.62,3.904-7.731,5.609-1.782,6.885
		c5.95,1.276,14.126-11.83,14.31-17.593c0.183-5.765,0.25-8.093-2.036-7.866C500.97,119.725,486.866,117.496,476.113,124.592z"/>
	<path d="M454.711,109.682c-4.73,1.536,3.868,2.495,4.243,6.042c0.375,3.547,1.286,2.483,6.151,1.773
		c4.866-0.709,8.242,0.097,7.441,2c-0.802,1.903-1.103,5.07-1.103,5.07s12.959-6.042,15.677-7.443
		c2.717-1.4,0.455-5.044-9.234-8.898C468.198,104.371,461.146,107.59,454.711,109.682z"/>
	<path d="M426.833,160.774c-2.779-1.532,0.708-5.411,5.99-5.412c5.283-0.001,5.814,3.398,4.431,4.75
		C435.872,161.464,429.206,162.084,426.833,160.774z"/>
	<path d="M402.578,166.24c-0.084,0.533,0.093,0.722,0.286,0.805c0.206,0.082,0.481,0.174,0.771,0.26
		c0.288,0.081,0.621,0.088,0.893-0.147c0.135-0.11,0.243-0.272,0.328-0.401l0.116-0.147l0.045-0.026l0.012-0.002l-0.077-0.016
		l-0.02-0.005l-0.959,0.981c0.58,0.082,0.954-0.083,1.541-0.152c0.563-0.067,1.319,0.025,2.016,0.684
		c1.164,1.151,1.716,2.681,2.263,3.811l0.488,1.006l0.91-0.923c0.312-0.316,0.478-0.593,0.61-0.842
		c0.353-0.732-0.244-1.179-0.851-1.237c-0.62-0.085-1.309,0.354-1.402,0.66l2.046,0.122c-0.142-0.158-0.329-0.319-0.57-0.487
		c-0.656-0.454-0.932-0.79-1.223-1.218c-0.295-0.424-0.591-0.973-1.455-1.738c-0.682-0.575-1.356-1.134-2.147-1.542
		c-0.784-0.41-1.677-0.63-2.518-0.614l-0.769,0.015l-0.27,0.899L402.578,166.24z"/>
	<path d="M420.39,140.132c-1.385,0.166-2.84,0.414-4.288,0.767c-0.37,0.08-0.71,0.194-1.071,0.291
		c-0.353,0.121-0.642,0.205-1.032,0.366c-0.744,0.295-1.497,0.602-2.251,0.931c-3.023,1.304-6.107,2.894-9.075,4.757
		c-2.927,1.885-5.924,3.987-8.099,6.416c-1.066,1.223-1.899,2.546-2.223,3.868c-0.325,1.325-0.142,2.577,0.431,4.031
		c0.553,1.428,1.294,2.807,1.895,4.189c0.302,0.687,0.581,1.399,0.782,2.09c0.204,0.685,0.349,1.318,0.477,1.911
		c0.486,2.369,0.809,4.141,1.215,5.407c0.388,1.263,0.806,2.004,1.019,2.362c0.206,0.371,0.137,0.408-0.216,0.059
		c-0.687-0.679-1.761-1.867-2.817-4.254c-0.537-1.176-1.045-2.656-1.689-4.316c-0.6-1.629-1.765-3.344-2.898-5.756
		c-0.545-1.208-1.035-2.496-1.134-3.908c-0.114-1.391,0.166-2.753,0.646-3.925c0.987-2.356,2.545-4.066,4-5.479
		c2.979-2.784,5.678-4.622,7.688-6.019c2.026-1.359,2.688-1.614,4.434-2.377c0.877-0.367,2.033-0.851,3.806-1.593
		c0.891-0.35,1.938-0.762,3.182-1.251c1.393-0.509,2.915-0.86,4.717-1.208c7.172-1.296,11.691-0.607,13.605,0.36
		c0.478,0.211,0.779,0.491,0.937,0.663c0.159,0.181,0.179,0.298,0.092,0.36c-0.189,0.138-0.726-0.008-1.687-0.145
		c-1.944-0.26-4.617,0.061-6.733,0.495C421.979,139.65,420.39,140.132,420.39,140.132z"/>
	<path d="M434.123,120.479c3.815-4.224,9.229-8.018,15.277-11.164c1.52-0.776,3.085-1.502,4.726-2.134
		c0.817-0.319,1.66-0.605,2.556-0.848c0.464-0.127,0.891-0.212,1.317-0.298c0.429-0.091,0.856-0.175,1.284-0.239
		c3.414-0.582,6.808-0.742,10.047-0.573c3.237,0.181,5.986,0.768,8.174,1.542c2.199,0.749,3.794,1.794,4.85,2.659
		c1.066,0.88,1.555,1.655,1.78,2.009c0.218,0.363,0.129,0.384-0.219,0.062c-0.683-0.662-1.969-1.4-4.167-2.07
		c-2.214-0.636-5.334-1.237-9.904-1.455c-4.566-0.2-8.75,0.32-12.091,1.17c-1.583,0.44-3.061,1.112-4.332,1.729
		c-1.276,0.628-2.374,1.245-3.284,1.802c-1.815,1.127-2.375,1.362-3.867,2.128c-0.741,0.391-1.719,0.913-3.132,1.843
		c-1.396,0.94-3.299,2.248-5.51,4.475c-2.178,2.24-3.559,4.267-4.175,5.941c-0.674,1.669-0.641,2.959-0.621,3.809
		c0.064,0.841,0.03,1.284-0.176,1.281c-0.1-0.002-0.234-0.118-0.399-0.349c-0.168-0.23-0.372-0.574-0.499-1.059
		c-0.723-1.909-0.329-4.791,0.551-6.812c0.411-1.033,0.884-1.887,1.229-2.495C433.89,120.832,434.123,120.479,434.123,120.479z"/>
	<path d="M457.087,133.047c0.88-0.956,1.776-2.02,2.917-3.103c1.16-1.067,2.349-1.981,3.668-2.9c2.617-1.818,5.59-3.33,8.616-4.671
		c5.999-2.77,12.822-4.832,19.216-5.08c3.199-0.129,5.955,0.21,8.16,0.793c1.094,0.347,2.071,0.627,2.886,1.044
		c0.41,0.193,0.795,0.36,1.139,0.547c0.334,0.21,0.643,0.404,0.927,0.583c0.279,0.183,0.535,0.343,0.755,0.506
		c0.208,0.183,0.393,0.347,0.558,0.491c0.322,0.293,0.547,0.518,0.684,0.674c0.271,0.311,0.191,0.35-0.2,0.103
		c-0.399-0.238-0.916-0.519-1.627-0.771c-0.732-0.21-1.592-0.52-2.72-0.707c-2.226-0.417-5.319-0.826-9.791-0.574
		c-2.233,0.111-4.357,0.414-6.316,0.853c-1.963,0.422-3.772,0.943-5.4,1.516c-1.637,0.55-3.084,1.178-4.361,1.753
		c-1.298,0.604-2.421,1.159-3.354,1.654c-1.86,0.997-2.417,1.19-3.914,1.846c-0.741,0.338-1.716,0.793-3.114,1.646
		c-0.694,0.434-1.499,0.961-2.394,1.666c-0.932,0.718-1.808,1.508-2.85,2.718c-2.057,2.394-3.891,4.431-5.738,5.587
		c-1.815,1.203-3.505,1.493-4.481,1.336c-0.982-0.152-1.315-0.424-1.212-0.591c0.052-0.091,0.212-0.173,0.461-0.239
		c0.124-0.034,0.27-0.063,0.438-0.088c0.165-0.044,0.352-0.094,0.561-0.149c1.709-0.368,3.413-2.053,4.544-3.577
		c0.577-0.768,1.054-1.485,1.395-2.011C456.882,133.368,457.087,133.047,457.087,133.047z"/>
	<path d="M473.928,154.661c4.007-0.979,8.554-3.423,13.067-6.305c1.109-0.719,2.333-1.469,3.374-2.197
		c1.072-0.72,2.077-1.542,3.049-2.383c1.92-1.716,3.624-3.619,5.098-5.557c2.919-3.903,4.435-7.049,5.392-8.895
		c0.922-1.867,1.344-2.443,1.157-1.698c-0.199,0.735-0.177,1.925-0.586,3.847c-0.419,1.9-1.213,4.617-3.449,7.883
		c-1.118,1.625-2.296,3.087-3.476,4.397c-1.193,1.299-2.398,2.433-3.552,3.434c-1.161,0.968-2.327,1.834-3.3,2.515
		c-0.98,0.705-1.842,1.327-2.575,1.853c-1.471,1.066-1.962,1.267-3.267,1.868c-0.652,0.302-1.512,0.7-2.831,1.31
		c-1.326,0.6-3.11,1.431-5.739,2.349c-2.636,0.91-4.908,1.217-6.652,1.213c-0.436-0.016-0.84-0.029-1.213-0.042
		c-0.373-0.046-0.713-0.102-1.02-0.156c-0.616-0.091-1.099-0.248-1.464-0.406c-1.452-0.598-1.054-1.004,0.426-0.974
		c1.503-0.01,3.464-0.382,4.966-0.938c0.753-0.275,1.402-0.553,1.863-0.756C473.652,154.798,473.928,154.661,473.928,154.661z"/>
	<path d="M463.828,163.201c-0.307,1.513-0.58,3.192-0.841,4.97c-0.254,1.767-0.505,3.78-0.928,5.702
		c-0.809,3.895-2.014,7.776-3.249,11.184c-2.493,6.766-4.098,9.34-3.902,8.288c0.243-1.042-0.465-3.514,1.198-8.762
		c1.687-5.212,2.625-9.433,2.815-11.923c0.123-1.241,0.238-1.569,0.526-2.503c0.255-0.913,0.652-2.525,1.227-6.317
		c1.15-7.587,2.859-8.776,2.829-6.569C463.476,159.478,463.828,163.201,463.828,163.201z"/>
	<path d="M383.721,179.055c-4.669,0.38-10.245,1.973-15.872,4.028c-5.641,2.048-11.385,4.526-16.748,6.529
		c-5.358,2.013-9.297,3.06-11.675,3.441c-2.379,0.383-3.149,0.244-2.321,0.022c1.683-0.471,4.551-2.562,12.45-5.772
		c7.914-3.239,14.204-6.051,17.948-7.616c1.868-0.795,2.445-0.905,4.003-1.263c0.778-0.181,1.804-0.42,3.377-0.786
		c1.576-0.361,3.701-0.861,6.739-1.348c6.118-0.98,9.953,0.066,11.469,0.821c1.548,0.789,1.09,1.146-0.558,0.916
		c-1.676-0.186-3.922-0.031-5.699,0.303C385.053,178.644,383.721,179.055,383.721,179.055z"/>
	<path d="M329.313,195.657c-2.578,0.58-5.6,1.758-8.884,2.819c-0.82,0.266-1.667,0.513-2.525,0.741
		c-0.821,0.211-1.642,0.422-2.458,0.631c-1.614,0.406-3.204,0.807-4.72,1.187c-3.014,0.74-5.127,1.211-6.432,1.443
		c-1.299,0.236-1.795,0.171-1.372-0.049c0.424-0.211,0.92-0.809,1.915-1.555c0.988-0.749,2.486-1.647,4.802-2.353
		c4.635-1.4,8.325-2.382,10.257-3.354c2.015-0.927,1.231-0.087,7.643-2.135c3.245-1.001,5.401-0.987,6.373-0.701
		c0.981,0.283,0.848,0.76-0.05,1.036c-0.904,0.29-2.057,0.834-2.963,1.347C329.991,195.219,329.313,195.657,329.313,195.657z"/>
	<path d="M357.71,207.441c6.183-0.991,13.757-2.053,16.523-1.76c2.771,0.321,6.712-0.623,5.921-3.528
		c-0.643-2.373-4.611-1.735-6.333-0.705c-1.706,1.062-12.667,3.633-17.061,4.063c-2.419,0.229-5.064,0.6-7.013,0.862l0.192,1.216
		l-0.012-0.211c-0.023-0.067-0.076-0.172-0.091-0.263c-0.022-0.101-0.096-0.313-0.135-0.466l-0.066-0.244l0.003-0.001l-0.032,0.006
		l-0.098,0.019l-0.213,0.039c-0.146,0.024-0.289,0.05-0.431,0.074c-0.285,0.048-0.561,0.094-0.828,0.139
		c-0.538,0.085-1.04,0.165-1.509,0.24c-0.942,0.145-1.759,0.26-2.48,0.348c-0.801,0.098-1.451,0.454-1.894,0.909
		c-0.221,0.227-0.391,0.48-0.498,0.736c-0.053,0.128-0.091,0.257-0.104,0.382l0.005,0.183l0.017,0.041l-0.073-0.171
		c-0.033-0.091-0.045-0.124-0.084-0.165c0.011-0.063,0.005-0.153,0.006-0.049l-0.02,0.032l0.014,0.016
		c0.041,0.043,0.051,0.073,0.09,0.175c0.051,0.111,0.103,0.242,0.147,0.393c0.038,0.11,0.076,0.223,0.115,0.336l0.062,0.195
		c0.076,0.193,0.275,0.334,0.538,0.423c0.534,0.175,1.382,0.126,2.582-0.306c1.057-0.38,1.99-0.687,2.851-0.948
		c0.434-0.126,0.848-0.245,1.25-0.361c0.204-0.056,0.405-0.109,0.604-0.164l0.306-0.08l0.163-0.044l0.102-0.027l0.09-0.025
		l0.202-0.075l0.034-0.016l0.076-0.04c0.096-0.104,0.435-0.12,0.692-0.944c0.168-1.034-0.637-1.524-0.755-1.55
		c-0.254-0.112-0.263-0.095-0.258-0.098l-0.087-0.021c-0.118-0.023-0.241-0.032-0.359-0.026l0.318,2.79
		C352.312,208.297,354.419,207.975,357.71,207.441z"/>
	<path d="M365.144,211.108c-1.233,1.397-2.614,2.844-3.963,4.389c-1.312,1.494-2.625,3.306-4.053,5.054
		c-2.818,3.521-5.85,7.073-8.823,10.091c-5.966,6.018-9.228,7.543-8.337,6.649c0.873-0.919,1.776-3.553,6.048-8.178
		c4.267-4.639,7.293-8.676,8.921-11.125c0.811-1.229,1.134-1.504,1.942-2.331c0.409-0.431,0.949-0.999,1.777-1.871
		c0.82-0.873,1.936-2.012,3.357-3.648c1.418-1.636,2.465-2.928,3.198-3.955c0.257-0.383,0.532-0.882,0.759-1.229
		c0.437-0.074,0.898-0.023,1.259-0.029c0.391,0.008,0.569,0.044,0.794,0.081c0.212,0.038,0.402,0.086,0.566,0.139
		c0.667,0.219,0.879,0.52,0.778,0.681c-0.1,0.169-0.443,0.246-1.035,0.342c-0.278,0.044-0.679,0.125-0.871,0.199
		c-0.103,0.039-0.206,0.078-0.311,0.118l-0.067,0.034l-0.022,0.095l-0.038,0.182l-0.029,0.17c-0.012,0.058-0.005,0.076-0.053,0.195
		l-0.209,0.567c-0.151,0.363-0.294,0.732-0.448,1.061C365.679,210.125,365.144,211.108,365.144,211.108z"/>
	<path d="M461.978,199.475c1.933,1.663,4.489,3.413,7.116,5.319c2.71,1.989,5.146,4.221,7.361,6.142
		c2.193,1.943,3.704,3.229,4.653,4.008c0.946,0.763,1.251,1.151,0.819,1.009c-0.419-0.148-1.164-0.077-2.335-0.358
		c-1.167-0.27-2.754-0.904-4.584-2.333c-1.818-1.431-3.403-2.74-4.787-3.78c-1.392-1.057-2.537-1.787-3.471-2.296
		c-1.862-1.03-0.761-0.95-5.871-4.754c-2.558-1.92-3.806-3.446-4.205-4.324c-0.402-0.882,0.015-1.124,0.799-0.66
		C459.047,198.384,461.978,199.475,461.978,199.475z"/>
	<path d="M481.305,211.187c-1.242-2.17-3.363-4.775-4.182-7.582c-0.397-1.393-0.326-2.54-0.071-3.242
		c0.287-0.747,0.618-0.84,0.611-0.634c-0.006,0.227,0.308,0.528,0.706,0.918c0.404,0.399,0.868,0.925,1.23,1.825
		c0.723,1.809,1.754,3.079,2.455,3.716c0.35,0.323,0.351,0.468,0.435,0.83c0.085,0.356,0.242,0.962,1.008,2.048
		c0.771,1.085,0.975,1.755,0.967,2.224c0.03,0.504-0.025,0.978-0.592,0.836c-0.501-0.141-1.126-0.37-1.649-0.572
		C481.707,211.348,481.305,211.187,481.305,211.187z"/>
	<path d="M479.51,189.136c0.994-1.169,2.061-2.488,3.257-3.858c1.212-1.362,2.495-2.808,4.177-4.089l0.645-0.473l0.714-0.437
		c0.188-0.13,0.596-0.323,0.955-0.444c0.364-0.113,0.723-0.185,1.067-0.213c1.377-0.104,2.524,0.208,3.552,0.595
		c2.05,0.803,3.725,1.998,5.13,3.339c2.802,2.692,3.782,5.602,3.662,7.326c-0.047,0.865-0.299,1.389-0.453,1.609
		c-0.153,0.223-0.222,0.175-0.182-0.096c0.085-0.551-0.185-1.422-0.906-2.481c-0.724-1.065-1.854-2.389-3.687-4.103
		c-1.835-1.693-3.939-2.831-5.638-3.117c-0.844-0.151-1.527-0.011-1.794,0.213c-0.562,0.389-1.06,0.821-1.449,1.224
		c-0.777,0.825-1.06,1.001-1.798,1.565c-0.729,0.572-1.931,1.557-4.209,4.447c-2.255,2.908-3.858,4.514-4.82,5.073
		c-0.953,0.566-1.199,0.142-0.678-0.793c0.517-0.939,1.118-2.261,1.601-3.349C479.138,189.981,479.51,189.136,479.51,189.136z"/>
	<path d="M502.361,197.971c-1.034,2.131-1.048,5.65-1.565,8.424c-0.515,2.776-1.589,3.964-1.622,3.539
		c-0.002-0.423-1.263-1.328-1.101-3.609c0.182-2.251,0.173-4.074,0.079-5.186c-0.056-0.556,0.062-0.694,0.256-1.083
		c0.203-0.391,0.478-1.027,0.942-2.588c0.491-1.569,1.288-2.358,1.874-2.546c0.573-0.196,0.915,0.126,0.856,0.563
		c-0.071,0.437-0.01,1.075,0.081,1.584C502.248,197.578,502.361,197.971,502.361,197.971z"/>
	<path d="M502.852,220.398c1.181,3.096,3.479,6.539,5.679,10.379c1.082,1.932,2.161,3.984,2.835,6.279
		c0.358,1.132,0.559,2.349,0.625,3.568c0.051,1.226-0.111,2.467-0.456,3.619c-0.729,2.317-2.091,3.86-3.245,4.891
		c-0.604,0.494-1.152,0.921-1.668,1.236c-0.522,0.307-0.977,0.562-1.372,0.76c-1.634,0.696-2.2,0.713-1.695,0.372
		c0.505-0.35,1.139-1.087,2.09-2.276c0.456-0.608,1.022-1.303,1.58-2.181c0.565-0.869,1.176-1.889,1.58-3.182
		c0.838-2.603,0.141-5.199-0.724-7.209c-0.873-2.037-1.942-3.619-2.732-4.771c-0.818-1.149-0.956-1.534-1.417-2.556
		c-0.438-1.045-1.328-2.623-3.308-6.555c-0.966-1.989-1.489-3.738-1.702-5.124c-0.091-0.701-0.147-1.296-0.11-1.806
		c0.01-0.505,0.066-0.911,0.163-1.224c0.344-1.241,0.812-0.977,1.031,0.175c0.254,1.17,0.906,2.625,1.568,3.721
		C502.242,219.613,502.852,220.398,502.852,220.398z"/>
	<path d="M485.372,218.597c0.169,3.613,2.37,8.453,3.29,12.866c0.389,1.894,0.408,3.393,0.305,4.385l-0.321-0.546l0.009,0.053
		c0.033-0.047-0.109,0.145-0.173,0.302c-0.131,0.21-0.113,0.378-0.111,0.347c-0.009-0.033-0.026-0.061-0.099-0.151
		c0.016,0.014-0.357-0.355-0.255-0.24l0.126-0.055c0.21-0.141,0.441-0.262,0.598-0.284c0.317-0.046,0.353,0.057,0.183,0.17
		c-0.126,0.092-0.215,0.267-0.268,0.483c-0.039,0.105-0.02,0.235-0.189,0.373c-0.224,0.109-0.44,0.009-0.609-0.051l-0.101-0.17
		c-0.5-0.712-1.148-1.823-1.66-3.687c-0.879-3.164-1.957-5.629-2.65-7.074c-0.354-0.721-0.339-0.961-0.38-1.593
		c-0.034-0.635-0.168-1.644-0.579-4.018c-0.384-2.397-0.012-3.908,0.413-4.547c0.415-0.646,0.868-0.497,1.019,0.147
		c0.136,0.65,0.496,1.493,0.82,2.148C485.081,218.114,485.372,218.597,485.372,218.597z"/>
	<path d="M476.918,238.558c-4.403-2.66-9.34-5.75-13.865-7.967c-2.106-1.117-4.038-2.408-5.758-3.451
		c-1.707-1.064-3.228-1.901-4.333-2.476c-1.07-0.612-2.506-1.063-4.041-1.233c-0.793,0.004-1.583-0.057-2.355,0.158
		c-0.384,0.089-0.762,0.169-1.114,0.293c-0.347,0.151-0.678,0.311-0.988,0.475c-0.645,0.294-1.091,0.778-1.492,1.166
		c-0.411,0.387-0.617,0.848-0.76,1.239c-0.272,0.797-0.112,1.42,0.496,1.883c0.496,0.379,1.154,0.439,1.808,0.321
		c0.678-0.075,1.381-0.264,2.09-0.367c1.346-0.305,3.151-0.12,4.58-0.056c0.692,0.007,2.246,0.406,4.289,1.288
		c2.047,0.858,4.543,2.234,7.362,3.417c2.668,1.094,5.389,2.56,7.817,3.921c2.428,1.377,4.569,2.685,6.082,3.685
		c6.074,4.016,13.574,8.191,18.526,10.401c1.245,0.546,2.455,0.748,3.414,0.635c0.95-0.085,1.614-0.482,1.819-0.902
		c0.212-0.432,0.015-0.94-0.645-1.38c-0.675-0.48-1.85-0.943-3.781-1.531c-3.867-1.203-6.559-2.469-9.329-3.885
		C483.962,242.741,481.096,241.115,476.918,238.558z"/>
	<path d="M446.421,225.571c-0.43,0.396-0.897,0.806-1.386,1.219c-0.441,0.37-0.889,0.753-1.334,1.16
		c-0.892,0.811-1.787,1.698-2.685,2.642c-1.798,1.885-3.608,4.004-5.556,6.132c-0.974,1.034-1.957,2.077-2.94,3.12
		c-0.942,1.026-1.859,2.095-2.772,3.175c-1.824,2.158-3.648,4.352-5.612,6.295c-0.486,0.479-0.977,0.948-1.481,1.381
		c-0.49,0.421-0.958,0.799-1.405,1.156c-0.891,0.697-1.706,1.334-2.443,1.911c-1.459,1.139-2.592,2.042-3.367,2.75
		c-0.78,0.704-1.19,1.211-1.351,1.457c-0.191,0.257-0.262,0.241-0.167-0.128c0.194-0.713,0.664-1.904,1.861-3.585
		c0.598-0.839,1.383-1.79,2.397-2.854c1-1.074,2.29-2.222,3.627-3.592c2.737-2.823,4.893-5.725,6.872-8.13
		c0.98-1.21,1.915-2.31,2.774-3.27c0.817-0.92,1.507-1.765,2.085-2.493c1.15-1.465,1.561-1.813,2.64-2.826
		c0.542-0.506,1.244-1.183,2.32-2.244c1.079-1.05,2.529-2.518,4.696-4.4c1.964-1.769,3.575-3.448,5.01-4.52
		c1.417-1.109,2.627-1.69,3.431-1.909c0.81-0.219,1.198-0.123,1.198,0.068c0.006,0.209-0.352,0.515-0.971,0.975
		c-1.247,0.935-2.571,2.574-3.594,3.974C447.225,224.468,446.421,225.571,446.421,225.571z"/>
	<path d="M333,212.031c-2.551,0.282-5.563,0.556-8.544,0.97c-3.006,0.445-6.118,0.906-8.947,1.325
		c-3.133,0.442-5.255,0.619-6.419,0.609l-0.434-1.278c0.291,0.046,0.674-0.065,0.829-0.03c0.167,0.022,0.148,0.093-0.024,0.189
		c-0.178,0.098-0.317,0.281-0.58,0.477v0.001c0.862-0.608,2.422-1.895,5.816-2.581c4.333-0.85,7.775-1.51,9.772-2.059
		c1.02-0.267,1.317-0.215,2.128-0.18c0.801,0.022,2.134,0.102,5.076-0.295c2.929-0.412,4.596-0.605,5.5-0.524
		c0.895,0.074,0.996,0.523,0.21,1.017c-0.779,0.469-1.858,1.089-2.765,1.551C333.704,211.68,333,212.031,333,212.031z"/>
	<path d="M317.73,232.786c1.078,0.166,2.171,0.335,3.235,0.499c0.747,0.117,1.841,0.289,3.084,0.484
		c1.19,0.176,2.442,0.466,3.718,0.843c2.511,0.767,5.022,1.605,5.793,2.037c1.007,0.629,2.486,0.953,3.671,0.57
		c1.197-0.373,1.929-1.429,1.651-3.161c-0.225-1.435-0.949-2.11-1.748-2.403c-0.803-0.288-1.802-0.221-2.536,0.106
		c-0.466,0.247-2.846,0.057-5.644-0.312c-1.394-0.167-2.888-0.323-4.238-0.343c-1.276-0.014-2.393-0.026-3.127-0.034
		c-1.549-0.01-3.004-0.132-3.967-0.383c-0.697-0.196-5.315-0.864-10.7-2.386c-1.356-0.403-2.772-0.824-4.202-1.249
		c-1.449-0.41-2.92-0.792-4.366-1.141c-2.891-0.699-5.68-1.267-7.982-1.715c-0.566-0.109-1.103-0.212-1.61-0.309
		c-0.524-0.084-1.018-0.162-1.485-0.236c-0.904-0.139-1.701-0.261-2.407-0.369c-1.403-0.227-2.429-0.425-3.203-0.598
		c-1.548-0.349-2.102-0.574-2.622-0.78c-0.517-0.211-1.002-0.104-1.374,0.155c-0.206,0.114-0.328,0.333-0.602,0.421
		c-0.264,0.102-0.53-0.182-0.713-0.394c-0.192-0.206-0.443-0.393-0.823-0.058c-0.181,0.154-0.367,0.487-0.324,1.033
		c0.027,0.279,0.059,0.403,0.151,0.643c0.037,0.097,0.119,0.242,0.149,0.302l0.124,0.21c0.399,0.571,0.792,0.862,1.208,1.08
		c0.426,0.215,0.91,0.337,1.47,0.362c1.073,0.035,1.81,0.005,3.397,0.126c0.782,0.067,1.778,0.154,3.13,0.271
		c0.665,0.066,1.418,0.141,2.276,0.226c0.422,0.047,0.874,0.094,1.301,0.158c0.477,0.076,0.98,0.156,1.513,0.241
		c2.276,0.375,5.021,0.881,7.862,1.521c1.421,0.32,2.865,0.674,4.287,1.057c1.435,0.408,2.86,0.812,4.229,1.202
		C311.914,231.981,316.725,232.622,317.73,232.786z"/>
	<path d="M203.464,202.127c-1.38-0.143-2.186-0.886-4.112-0.556c-1.945,0.314-2.067-0.369-3.216-0.585
		c-1.156-0.225-0.921-0.181-2.426-1.122c-1.515-0.939,0.001-0.001-1.169-0.223c-1.174-0.222-1.869,0.953-1.869,0.953l0.699,2.722
		l2.659-0.141c0,0,2.195,1.08,3.142,1.251c0.935,0.175,2.261,1.044,2.993,1.148c0.734,0.112,2.342-0.964,3.531-0.863
		C204.905,204.81,204.818,202.249,203.464,202.127z"/>
	<path d="M267.022,217.892c-4.955-1.504-7.974-3.295-14.738-5.091c-3.382-0.902-5.254-1.555-6.757-2.173
		c-1.493-0.611-2.642-1.227-4.661-2.018c-2.02-0.797-2.836-1.122-3.826-1.593c-1.004-0.461-2.146-1.115-5.008-2.422
		c-2.892-1.276-2.936-1.225-2.728-1.098c0.196,0.141,0.593,0.401-1.598-0.184c-2.21-0.566-3.878-0.475-4.925-0.299
		c-1.059,0.207-1.524,0.478-1.524,0.478c1.415,0.994,2.699,2.025,3.882,3.157c3.038,0.42,6.089,1.213,9.128,2.127
		c0,0,1.968,0.922,4.331,2.026c2.356,1.118,5.212,2.371,6.875,2.938c3.266,1.137,7.938,3.564,10.416,4.452
		c2.477,0.896,7.867,1.458,12.091,2.637c2.124,0.596,3.135,0.174,2.971-0.52C270.789,219.602,269.492,218.631,267.022,217.892z"/>
	<path d="M188.036,208.842c-0.644-0.199-1.444-0.263-2.307-0.436c-0.852-0.173-1.809-0.489-2.528-1.168
		c-0.731-0.681-0.867-1.536-0.764-1.965c0.104-0.455,0.311-0.59,0.352-0.49c0.054,0.102,0.32,0.196,0.66,0.27
		c0.33,0.092,0.682,0.142,1.005,0.405c0.712,0.53,1.6,0.522,2.075,0.407c0.501-0.139,0.162,0.334,1.589,0.55
		c1.425,0.163,1.679,1.351,1.217,1.574C188.882,208.208,188.036,208.842,188.036,208.842z"/>
	<path d="M189.677,213.298c-1.372-0.025-3.209,0.58-4.906,0.064c-0.837-0.263-1.42-0.823-1.605-1.311
		c-0.182-0.518,0.004-0.712,0.074-0.628c0.087,0.098,0.391,0.048,0.697-0.064c0.331-0.117,0.653-0.235,1.137-0.154
		c0.975,0.165,1.84-0.1,2.295-0.352c0.459-0.273,0.284,0.268,1.715,0.091c0.702-0.105,1.152,0.082,1.439,0.344
		c0.288,0.264,0.381,0.613,0.188,0.794C190.347,212.452,189.677,213.298,189.677,213.298z"/>
	<path d="M186.625,216.935c1.317,0.722,3.125,1.183,5.024,1.486c1.903,0.307,3.901,0.471,5.721,0.74
		c3.632,0.504,5.195,1.557,4.628,1.6c-0.559-0.002-1.694,1.28-4.61,1.126c-2.893-0.181-5.24-0.262-6.666-0.262
		c-0.712,0.003-0.892-0.127-1.396-0.359c-0.502-0.263-1.335-0.581-3.302-1.324c-1.976-0.773-2.895-1.803-3.138-2.449
		c-0.253-0.646,0.103-0.958,0.648-0.797c0.542,0.18,1.338,0.248,1.965,0.271C186.144,216.967,186.625,216.935,186.625,216.935z"/>
	<path d="M236.479,229.503c1.993,1.13,4.321,2.068,6.919,2.968c2.582,0.909,5.418,1.787,8.234,3.03
		c5.489,2.448,10.952,5.137,15.956,7.514c4.983,2.399,8.451,4.049,10.53,4.949c1.036,0.48,1.724,0.734,2.049,0.932
		c0.326,0.186,0.283,0.254-0.125,0.172c-0.809-0.157-2.109-0.104-4.209-0.49c-2.098-0.37-4.99-1.148-8.844-2.848
		c-7.667-3.433-13.785-6.26-17.404-7.499c-1.791-0.6-2.278-0.844-3.656-1.472c-0.693-0.312-1.615-0.703-3.07-1.266
		c-1.449-0.58-3.451-1.272-6.209-2.538c-2.741-1.319-4.667-2.549-6.208-3.408c-1.531-0.864-2.612-1.474-3.297-1.861
		c-1.397-0.777-1.091-1.196,0.624-0.881c1.687,0.34,3.896,1.043,5.644,1.656C235.165,229.075,236.479,229.503,236.479,229.503z"/>
	<path d="M297.489,258.999c-2.482-1.62-5.159-2.741-7.725-3.692c-2.555-0.954-4.954-1.752-6.702-2.678
		c-0.864-0.442-1.095-0.777-1.138-1.207c-0.018-0.403,0.33-0.836,1.022-1.143c1.367-0.601,3.639-0.604,4.902-0.103
		c2.548,0.988,6.964,2.971,10.342,4.445c0.415,0.176,1.163,0.505,2.07,0.855c0.985,0.365,2.206,0.818,3.582,1.33
		c2.794,1.035,6.223,2.305,9.637,3.57c3.403,1.281,6.79,2.555,9.514,3.58c2.707,1.025,4.756,1.754,5.501,2.021
		c1.491,0.491,8.002,3.17,15.046,4.514l1.332,0.239c0.505,0.108,1.035,0.189,1.515,0.325c0.98,0.254,1.911,0.559,2.802,0.888
		c1.782,0.655,3.422,1.384,4.913,2.063c2.983,1.363,5.387,2.502,6.781,2.965c2.778,0.948,4.21,2.335,4.747,3.433
		c0.535,1.11,0.108,1.992-1.254,1.656c-1.352-0.327-4.436-1.718-7.303-3.111c-2.872-1.399-5.604-2.667-6.326-2.961
		c-0.359-0.155-1.543-0.785-3.21-1.511c-0.834-0.345-1.794-0.744-2.829-0.994c-1.079-0.281-2.324-0.555-3.511-0.898
		c-4.814-1.338-9.638-3.279-11.469-3.695c-3.695-0.785-13.493-5.028-17.498-6.474c-1.999-0.741-5.196-1.299-8.12-1.809
		c-1.463-0.255-2.856-0.498-4.001-0.746c-0.285-0.066-0.556-0.129-0.809-0.188c-0.272-0.07-0.539-0.147-0.774-0.222
		C298.076,259.3,297.727,259.15,297.489,258.999z"/>
	<path d="M426.496,267.985c1.077,1.406,2.21,2.883,3.387,4.419c1.151,1.534,2.367,3.073,3.615,4.778
		c2.458,3.376,4.853,7.134,6.715,11.32c1.857,4.158,3.156,8.858,3.183,13.577c0.018,2.339-0.134,4.68-0.638,6.929
		c-0.187,1.135-0.567,2.225-0.875,3.311c-0.406,1.061-0.761,2.126-1.28,3.115c-1.9,4.032-4.584,6.88-7.071,8.72
		c-2.499,1.856-4.794,2.782-6.508,3.243c-0.856,0.248-1.564,0.417-2.147,0.467c-0.575,0.073-0.998,0.109-1.273,0.114
		c-0.551,0.011-0.52-0.097,0.074-0.274c0.589-0.2,1.334-0.445,2.209-0.963c0.432-0.256,0.915-0.54,1.456-0.859
		c0.506-0.359,1.065-0.759,1.687-1.202c0.598-0.464,1.223-1.013,1.911-1.592c0.631-0.655,1.382-1.282,2.056-2.118
		c1.413-1.591,2.898-3.605,4.188-6.233c2.59-5.288,2.925-10.849,2.311-15.264c-0.646-4.441-2.231-7.898-3.541-10.308
		c-1.354-2.406-1.673-3.122-2.659-5.079c-0.516-0.967-1.202-2.244-2.441-4.104c-0.63-0.933-1.372-1.982-2.341-3.264
		c-0.964-1.282-2.069-2.757-3.397-4.43c-2.649-3.352-4.819-5.91-6.566-7.81c-1.752-1.889-3.066-3.129-3.904-3.942
		c-0.845-0.794-1.17-1.255-0.963-1.412c0.187-0.131,0.966-0.014,2.073,0.613c2.254,1.191,4.982,3.235,7.092,5.012
		C424.956,266.53,426.496,267.985,426.496,267.985z"/>
	<path d="M407.041,328.178c1.095,0.125,2.119,0.142,3.03,0.098c0.919-0.088,1.722-0.219,2.387-0.402
		c1.338-0.438,2.099-0.982,2.187-1.501c0.089-0.518-0.484-1.015-1.766-1.367c-1.287-0.366-3.292-0.683-6.22-1.148
		c-5.954-0.978-11.57-2.254-17.94-3.996c-3.183-0.876-6.545-1.895-10.229-3.081c-3.697-1.164-7.633-2.542-12.004-4.293
		c-4.369-1.737-8.757-3.516-13.136-5.049c-4.383-1.521-8.76-2.793-13.007-3.624c-2.124-0.401-4.212-0.717-6.225-0.939
		c-1.993-0.188-3.909-0.37-5.736-0.542c-3.618-0.332-6.809-0.773-9.406-1.417c-2.529-0.628-4.328-1.048-5.501-1.1
		c-1.152-0.066-1.729,0.335-1.271,1.206c0.436,0.876,2.018,2.264,5.063,3.29c3.029,1.065,7.417,1.551,12.931,1.407
		c5.883-0.182,10.083,0.453,15.21,1.801c5.111,1.375,10.98,3.589,20.212,7.152c3.688,1.41,7.448,2.863,11.141,4.225
		c3.67,1.371,7.291,2.792,10.82,4.069C394.626,325.534,401.354,327.506,407.041,328.178z"/>
	<path d="M316.273,298.095c-0.704-0.327-1.585-0.57-2.497-0.947c-0.904-0.373-1.864-0.897-2.528-1.722
		c-0.677-0.823-0.749-1.745-0.61-2.205c0.147-0.484,0.367-0.601,0.399-0.483c0.046,0.123,0.298,0.273,0.645,0.421
		c0.329,0.163,0.708,0.305,1.051,0.679c0.76,0.75,1.738,0.963,2.293,0.965c0.586-0.026,0.14,0.391,1.691,0.902
		c1.525,0.434,1.695,1.611,1.149,1.777C317.328,297.636,316.273,298.095,316.273,298.095z"/>
	<path d="M319.321,293.056c-0.893-0.138-1.982-0.116-3.205-0.409c-0.607-0.155-1.251-0.378-1.843-0.79
		c-0.584-0.404-1.112-0.983-1.368-1.632c-0.15-0.317-0.222-0.621-0.244-0.901c-0.044-0.281-0.041-0.529,0.003-0.747
		c0.052-0.442,0.187-0.758,0.337-0.977c0.279-0.443,0.522-0.53,0.52-0.385c0.033,0.295,0.807,0.99,1.264,1.91
		c0.505,0.994,1.625,1.092,2.184,1.003c0.309-0.06,0.357,0.027,0.57,0.153c0.212,0.12,0.569,0.327,1.527,0.354
		c1.906,0.002,2.435,1.105,1.85,1.405c-0.287,0.142-0.675,0.398-1.002,0.62C319.582,292.883,319.321,293.056,319.321,293.056z"/>
	<path d="M327.445,284.584c4.417,0.403,9.83,0.074,15.546-0.076c2.853-0.022,5.672-0.146,8.599-0.1
		c1.453,0.028,2.911,0.098,4.363,0.278c0.727,0.093,1.45,0.201,2.171,0.359c0.726,0.152,1.412,0.326,2.188,0.627
		c1.502,0.58,2.658,1.467,3.556,2.307c0.903,0.85,1.59,1.672,2.192,2.397c1.18,1.453,2.058,2.51,2.824,3.176
		c0.748,0.69,1.347,1.004,1.626,1.213c0.28,0.209,0.24,0.275-0.136,0.162c-0.735-0.193-1.99-0.389-3.747-1.541
		c-0.869-0.564-1.819-1.364-2.9-2.291c-1.089-0.909-2.304-1.994-3.905-2.697c-0.78-0.333-1.679-0.54-2.572-0.693
		c-0.892-0.146-1.777-0.233-2.638-0.293c-1.73-0.102-3.367-0.087-4.884-0.032c-3.018,0.134-5.619,0.298-7.433,0.459
		c-1.846,0.178-2.38,0.121-3.846,0.041c-1.472-0.109-3.86-0.092-9.534-0.211c-2.842-0.09-5.123-0.414-6.852-0.826
		c-1.729-0.44-2.908-0.918-3.6-1.345c-1.384-0.842-0.942-1.183,0.593-0.887c1.558,0.266,3.67,0.317,5.375,0.227
		c0.854-0.043,1.607-0.103,2.149-0.164C327.118,284.619,327.445,284.584,327.445,284.584z"/>
	<path d="M379.947,296.287c1.476,0.581,3.288,0.928,5.256,1.147c1.972,0.225,4.116,0.319,6.362,0.556
		c1.122,0.119,2.268,0.277,3.418,0.514c1.132,0.235,2.129,0.456,3.203,0.656c2.111,0.406,4.213,0.757,6.22,1.112
		c4.017,0.705,6.842,1.371,8.491,1.902c1.65,0.524,2.13,0.882,1.515,0.814c-1.23-0.154-3.811,0.844-9.974,0.035
		c-3.079-0.42-5.856-0.819-8.233-1.214c-0.589-0.099-1.152-0.193-1.689-0.283c-0.505-0.083-0.992-0.138-1.451-0.186
		c-0.925-0.082-1.747-0.113-2.454-0.117c-1.415-0.002-1.817-0.106-2.932-0.324c-0.561-0.11-1.301-0.236-2.458-0.417
		c-1.158-0.19-2.732-0.391-4.962-0.949c-2.265-0.623-3.778-1.459-4.94-1.995c-1.153-0.563-1.952-0.932-2.48-1.221
		c-1.06-0.537-0.899-0.999,0.418-0.966c1.291,0.055,3.022,0.357,4.364,0.602C378.974,296.201,379.947,296.287,379.947,296.287z"/>
	<path d="M377.141,283.657c3.291,1.51,7.002,3.682,10.812,5.31c0.873,0.349,2.033,0.729,3.075,1.18
		c1.061,0.435,2.086,0.931,3.091,1.437c2.001,1.026,3.868,2.155,5.597,3.257c3.436,2.224,5.711,3.856,7.085,4.858
		c1.369,0.997,1.74,1.469,1.175,1.227c-0.563-0.242-1.53-0.323-3.05-0.751c-1.519-0.419-3.586-1.216-6.237-2.784
		c-2.647-1.566-5.053-2.868-7.17-3.765c-2.114-0.921-3.889-1.32-5.413-1.848c-1.432-0.488-1.763-0.757-2.733-1.375
		c-0.967-0.594-2.518-1.691-6.311-3.487c-3.801-1.767-6.003-2.376-7.116-2.735c-1.116-0.347-1.086-0.803,0.236-1.035
		c1.292-0.158,3.057-0.089,4.471,0.103c0.712,0.084,1.329,0.195,1.773,0.274C376.875,283.6,377.141,283.657,377.141,283.657z"/>
	<path d="M294.721,204.609c-2.153-0.181-4.749-0.141-7.44-0.102l-1.013,0.014l-1.073,0.003c-0.684-0.008-1.296-0.015-1.816,0.04
		c-0.524,0.049-0.921,0.168-1.133,0.293c-0.12,0.056-0.173,0.127-0.272,0.217c-0.109,0.138-0.238,0.319-0.36,0.532
		c-0.497,0.869-0.855,1.822-1.135,2.567c-0.274,0.761-0.463,1.373-0.59,1.829c-0.131,0.46-0.18,0.749-0.233,0.924
		c-0.055,0.178-0.121,0.211-0.19,0.046c-0.137-0.304-0.571-0.8-0.841-1.824c-0.245-1.009-0.399-2.497,0.42-4.462
		c0.212-0.49,0.468-0.971,0.85-1.455c0.395-0.498,0.927-0.863,1.436-1.094c1.036-0.46,1.959-0.522,2.747-0.597
		c0.788-0.059,1.467-0.08,1.993-0.151c0.594-0.063,1.116-0.131,1.559-0.2c1.775-0.278,1.013,0.316,6.333,0.391
		c5.318,0.073,6.332,1.598,4.812,1.879C297.255,203.738,294.721,204.609,294.721,204.609z"/>
	<path d="M283.898,210.947c-0.333,0.283-0.526,0.947-0.584,1.611c-0.066,0.675-0.023,1.363-0.042,1.911
		c-0.019,0.555-0.138,0.873-0.193,1.224c-0.039,0.309-0.051,0.618-0.141,0.541c-0.064-0.078-0.379,0.073-0.764-0.07
		c-0.421-0.11-0.87-0.522-1.025-1.202c-0.241-1.325-0.312-2.343-0.426-3.017c-0.066-0.334,0.037-0.413,0.182-0.628
		c0.161-0.217,0.35-0.562,0.811-1.44c0.509-0.904,1.417-1.171,1.82-0.922c0.383,0.198,0.352,0.598,0.268,0.772
		c-0.055,0.079-0.088,0.204-0.093,0.352c-0.01,0.13,0.007,0.267,0.036,0.41C283.802,210.739,283.898,210.947,283.898,210.947z"/>
	<path d="M289.564,213.913c-0.297,0.392-0.402,1.123-0.41,1.85c-0.013,0.735,0.056,1.494,0.031,2.135
		c-0.021,0.649-0.167,1.042-0.28,1.359c-0.111,0.258-0.127,0.588-0.212,0.501c-0.065-0.065-0.371,0.025-0.756-0.177
		c-0.378-0.184-0.792-0.613-0.889-1.266c-0.199-1.292-0.354-2.289-0.529-2.934c-0.093-0.318-0.006-0.404,0.116-0.629
		c0.135-0.229,0.287-0.585,0.59-1.505c0.324-0.94,1.143-1.428,1.634-1.271c0.433,0.124,0.428,0.542,0.391,0.718
		c-0.035,0.075-0.035,0.224-0.016,0.36c0.016,0.117,0.064,0.281,0.113,0.407C289.438,213.695,289.569,213.921,289.564,213.913z"/>
	<path d="M306.081,217.886c-1.459,1.187-3.105,1.814-4.833,2.383c-0.887,0.271-1.743,0.465-2.618,0.616
		c-0.883,0.146-1.799,0.218-2.703,0.139c-1.823-0.135-3.125-1.022-3.577-1.719c-0.471-0.706-0.362-1.066-0.186-0.912
		c0.193,0.15,0.67,0.147,1.276,0.072c0.614-0.065,1.317-0.187,2.362-0.16c2.122-0.008,3.952-0.777,4.789-1.302
		c0.436-0.28,0.584-0.251,0.985-0.268c0.198-0.011,0.46-0.034,0.828-0.138c0.347-0.098,0.886-0.305,1.309-0.643
		c0.453-0.377,0.949-0.843,1.435-1.137c0.49-0.306,0.957-0.44,1.29-0.418c0.671,0.057,0.752,0.535,0.523,0.88
		c-0.246,0.372-0.401,0.987-0.55,1.548C306.273,217.382,306.081,217.886,306.081,217.886z"/>
	<path d="M421.82,170.48c-0.127,0.45,0.067,1.139,0.401,1.788c0.331,0.659,0.778,1.303,1.131,1.923
		c0.689,1.211,0.773,2.091,0.593,1.99c-0.155-0.125-1.115,0.18-1.943-0.844c-0.797-1.026-1.434-1.847-1.819-2.344
		c-0.218-0.251-0.188-0.373-0.203-0.63c0.006-0.268-0.069-0.666-0.122-1.688c-0.014-1.08,0.61-1.669,0.975-1.701
		c0.364-0.069,0.544,0.189,0.525,0.409C421.257,169.88,421.809,170.503,421.82,170.48z"/>
	<path d="M431.272,175.422c-0.039,1.215,0.866,2.804,1.44,3.902c0.285,0.567,0.435,0.96,0.555,1.287
		c0.124,0.299,0.172,0.54,0.064,0.489c-0.091-0.06-0.342,0.097-0.71,0.062c-0.387-0.002-0.882-0.206-1.29-0.727
		c-0.758-1.052-1.263-1.91-1.648-2.41c-0.345-0.513,0.017-0.368-0.318-2.085c-0.138-0.879,0.111-1.451,0.398-1.674
		c0.278-0.224,0.569-0.139,0.66,0.079C430.596,174.806,431.272,175.422,431.272,175.422z"/>
	<path d="M439.999,179.462c-0.064,1.062,0.945,2.452,1.567,3.419c0.312,0.507,0.471,0.875,0.597,1.182
		c0.127,0.279,0.191,0.514,0.087,0.475c-0.09-0.046-0.314,0.128-0.671,0.135c-0.367,0.034-0.857-0.105-1.285-0.559
		c-0.808-0.915-1.377-1.674-1.79-2.125c-0.366-0.473-0.03-0.342-0.411-2.014c-0.149-0.876,0.162-1.47,0.482-1.644
		c0.306-0.179,0.577-0.032,0.643,0.168c0.054,0.207,0.251,0.472,0.431,0.654C439.836,179.342,439.999,179.462,439.999,179.462z"/>
	<path d="M408.549,157.012c0.343,0.286,0.853,0.402,1.42,0.623c0.555,0.214,1.191,0.555,1.54,1.149
		c0.349,0.592,0.251,1.202,0.044,1.551c-0.203,0.358-0.465,0.513-0.493,0.453c-0.032-0.061-0.35-0.038-0.683-0.01
		c-0.342,0.023-0.664,0.066-0.818-0.095c-0.329-0.349-0.873-0.311-1.209-0.146c-0.357,0.169,0.056-0.34-0.72-0.643
		c-0.795-0.286-0.542-1.778-0.181-1.981C407.79,157.704,408.549,157.012,408.549,157.012z"/>
	<path d="M386.702,142.733c-2.223-2.294-5.749-4.904-8.625-7.094c-2.882-2.219-3.758-3.698-3.265-3.429
		c0.468,0.299,1.922,0.051,4.268,1.643c2.335,1.588,4.211,2.875,5.365,3.557c1.14,0.691,0.442,0.659,3.353,3.262
		c2.9,2.59,2.727,3.918,1.736,3.358C388.544,143.468,386.702,142.733,386.702,142.733z"/>
	<path d="M382.704,149.148c-1.644-0.996-3.841-1.866-6.144-2.852c-2.358-0.991-4.599-2.297-6.566-3.277
		c-0.956-0.491-1.845-0.852-2.606-1.246c-0.756-0.383-1.349-0.775-1.749-1.12c-0.798-0.711-0.857-1.103-0.575-0.891
		c0.299,0.2,0.87,0.283,1.74,0.392c0.869,0.136,2.076,0.199,3.789,0.902c1.657,0.716,3.068,1.445,4.285,1.981
		c1.214,0.548,2.222,0.892,3.009,1.125c1.566,0.485,0.743,0.52,5.228,2.652c2.245,1.118,3.357,2.25,3.717,2.9
		c0.364,0.656,0.047,0.844-0.567,0.531c-0.624-0.311-1.512-0.608-2.246-0.8C383.282,149.254,382.704,149.148,382.704,149.148z"/>
	<path d="M381.82,155.964c-0.796-0.272-1.716-0.496-2.71-0.715c-0.977-0.221-2.114-0.431-3.144-0.767
		c-2.106-0.618-4.291-1.262-6.224-2.003c-0.959-0.369-1.751-0.731-2.4-1.064c-0.333-0.171-0.591-0.316-0.884-0.484
		c-0.254-0.156-0.465-0.301-0.643-0.431c-0.178-0.13-0.321-0.245-0.428-0.341l-0.066-0.064l0.018-0.008l0.115-0.003l0.076-0.15
		c0.013-0.113-0.065-0.183-0.142-0.202l0.237-0.053l0.061-0.119l-0.061-0.073c-0.12-0.082-0.062-0.031-0.071-0.038l0.076,0.11
		c0.085,0.13,0.054,0.179-0.088,0.121l-0.054-0.02c-0.008,0.023-0.069-0.081,0.001,0.066l-0.032,0.016l-0.053-0.005l0.052,0.069
		l-0.075,0.021l0.032,0.003l0.071,0.006c0.103,0.003,0.218,0.006,0.35,0.01c0.264,0.002,0.593-0.002,0.991,0.018
		c0.78,0.02,1.891,0.138,3.355,0.613c2.915,0.939,5.31,1.472,6.727,1.691c1.434,0.214,0.629,0.439,4.889,1.449
		c2.148,0.529,3.358,1.368,3.742,1.946c0.391,0.578,0.088,0.795-0.471,0.614C383.91,155.803,381.82,155.964,381.82,155.964z"/>
	<path d="M390.963,215.283c-0.25,1.301,0.024,3.082-0.014,4.446c-0.039,1.337-0.481,2.121-0.575,1.931
		c-0.054-0.192-1.009-0.421-1.173-1.654c-0.132-1.193-0.297-2.126-0.483-2.678c-0.179-0.545,0.2-0.318,0.273-1.902
		c0.064-1.552,1.021-1.848,1.22-1.396C390.409,214.492,390.963,215.283,390.963,215.283z"/>
	<path d="M396.614,221.737c0.123,1.386,0.61,3.282,0.408,4.827c-0.197,1.529-0.984,2.121-0.983,1.899
		c-0.002-0.225-0.785-0.687-0.785-1.818c0-1.131-0.235-2.009-0.474-2.494c-0.257-0.476,0.213-0.313-0.044-1.793
		c-0.312-1.421,0.442-2.031,0.79-1.656C395.864,221.073,396.614,221.737,396.614,221.737z"/>
	<path d="M403.835,228.391c-0.19,1.323-0.108,3.304-0.855,4.766c-0.748,1.445-1.786,1.569-1.665,1.378
		c0.097-0.21-0.386-0.932-0.025-1.905c0.358-0.997,0.335-1.873,0.217-2.371c-0.142-0.503,0.282-0.229,0.36-1.69
		c0.015-1.431,0.909-1.833,1.151-1.395C403.254,227.6,403.835,228.391,403.835,228.391z"/>
	<path d="M411.326,231.078c0.5-0.029,1.068-0.368,1.595-0.828c0.534-0.456,1.051-1.014,1.623-1.467
		c1.145-0.925,2.15-0.858,1.989-0.682c-0.161,0.167,0.123,1.025-0.665,1.856c-0.792,0.829-1.382,1.599-1.758,2.102
		c-0.184,0.253-0.294,0.258-0.526,0.325c-0.251,0.05-0.603,0.201-1.48,0.508c-0.906,0.293-1.517,0.017-1.73-0.25
		c-0.226-0.27-0.147-0.563,0.058-0.663c0.214-0.087,0.466-0.317,0.632-0.513C411.23,231.253,411.326,231.078,411.326,231.078z"/>
	<path d="M195.735,165.279c-0.522-1.792-1.499-3.845-2.771-5.793c-1.257-1.963-2.855-3.769-4.405-5.308
		c-1.57-1.553-2.708-2.5-3.457-3.212l-0.141-0.191c-0.037-0.089-0.068-0.049-0.135-0.324c-0.001-0.032-0.015-0.054,0.02-0.164
		l0.156-0.186l0.188-0.043l0.121,0.024l0.125,0.053c0.133,0.066,0.197,0.095,0.228,0.115c0.043,0.039,0.126,0.052,0.004,0.1
		c-0.065,0.012-0.156,0.012-0.265,0.008l-0.178,0.001l-0.07,0.055l0.065,0.074c0.196,0.182,0.551,0.244,0.939,0.44
		c0.797,0.341,1.86,0.947,3.154,2.093c2.559,2.324,4.24,4.549,5.224,5.85c0.502,0.648,0.561,0.886,0.825,1.469
		c0.245,0.592,0.701,1.534,1.563,3.799c0.829,2.286,0.913,3.758,0.849,4.435c-0.068,0.68-0.315,0.604-0.529-0.036
		c-0.199-0.645-0.578-1.47-0.894-2.127C196.004,165.773,195.735,165.279,195.735,165.279z"/>
	<path d="M196.307,151.713c1.719,0.14,3.661,0.056,5.678-0.259c2.014-0.316,4.137-0.801,6.105-1.641
		c3.969-1.715,7.599-4.618,10.26-7.695c2.675-3.104,3.751-5.806,4.225-7.418c0.413-1.634,0.546-2.188,0.51-1.553
		c-0.028,0.314-0.025,0.707-0.016,1.229c-0.071,0.507-0.068,1.164-0.257,1.947c-0.311,1.575-1.13,3.782-3.148,6.322
		c-2.005,2.544-4.253,4.419-6.247,5.881c-2.01,1.451-3.841,2.423-5.254,3.039c-1.417,0.619-1.866,0.667-3.031,0.907
		c-0.587,0.11-1.356,0.255-2.544,0.418c-1.187,0.158-2.792,0.377-5.068,0.371c-2.275-0.012-4.111-0.372-5.445-0.901
		c-1.341-0.519-2.165-1.176-2.587-1.653c-0.823-0.987-0.449-0.959,0.511-0.233c1.034,0.683,2.644,1.104,3.965,1.201
		C195.285,151.791,196.307,151.713,196.307,151.713z"/>
	<path d="M227.15,140.831c1.679,2.726,4.477,5.577,7.595,8.216c1.485,1.311,3.269,2.24,5.145,2.938
		c1.871,0.692,3.81,1.128,5.668,1.311c1.86,0.186,3.447,0.089,4.732-0.121c0.639-0.127,1.215-0.242,1.699-0.422
		c0.507-0.132,0.907-0.333,1.263-0.487c0.367-0.138,0.638-0.307,0.859-0.437c0.224-0.127,0.395-0.217,0.511-0.27
		c0.232-0.106,0.241-0.065,0.012,0.113c-0.231,0.175-0.481,0.443-0.84,0.763c-0.392,0.263-0.834,0.696-1.514,1.011
		c-1.305,0.711-3.416,1.398-6.43,1.24c-6.01-0.389-10.477-2.887-12.599-4.735c-1.086-0.862-1.355-1.157-2.1-1.952
		c-0.37-0.4-0.857-0.928-1.605-1.737c-0.74-0.816-1.737-1.922-2.981-3.614c-1.238-1.697-1.991-3.257-2.33-4.55
		c-0.336-1.293-0.32-2.27-0.175-2.848c0.296-1.157,0.5-0.852,0.491,0.254c0.073,1.138,0.666,2.551,1.326,3.576
		C226.521,140.12,227.15,140.831,227.15,140.831z"/>
	<path d="M252.267,156.346c-0.552,1.674-0.245,4.041,0.571,6.265c0.812,2.245,2.069,4.422,3.392,6.231
		c2.646,3.638,4.513,4.287,3.816,4.149c-0.319-0.125-0.866-0.188-1.697-0.58c-0.817-0.395-1.903-1.134-3.041-2.54
		c-2.248-2.827-3.467-5.467-4.145-7.042c-0.332-0.794-0.351-1.051-0.448-1.721c-0.048-0.336-0.1-0.781-0.163-1.465
		c-0.035-0.688-0.116-1.623,0.093-2.947c0.205-1.331,0.805-2.331,1.385-2.937c0.608-0.592,1.135-0.872,1.496-0.96
		c0.708-0.198,0.679,0.087,0.157,0.502c-0.521,0.44-1.012,1.195-1.205,1.857C252.266,155.815,252.267,156.346,252.267,156.346z"/>
	<path d="M255.666,176.413c-1.168,0.981-1.937,2.93-2.044,4.95c-0.123,2.026,0.392,4.16,1.414,5.645
		c1.028,1.492,2.278,2.016,3.031,2.3c0.771,0.251,1.055,0.392,0.742,0.382c-0.306-0.015-0.772,0.143-1.593,0.072
		c-0.787-0.068-2.061-0.43-3.128-1.764c-1.051-1.323-1.524-2.77-1.792-3.994c-0.266-1.235-0.307-2.29-0.302-3.071
		c0.013-0.784,0.098-1.005,0.293-1.589c0.102-0.29,0.234-0.675,0.488-1.243c0.257-0.562,0.597-1.344,1.371-2.269
		c0.78-0.924,1.678-1.416,2.388-1.628c0.357-0.11,0.67-0.157,0.935-0.159c0.261-0.023,0.472,0.009,0.634,0.046
		c0.639,0.144,0.507,0.385-0.066,0.52c-0.584,0.15-1.276,0.543-1.709,0.971C255.896,176.019,255.666,176.413,255.666,176.413z"/>
	<path d="M255.408,191.538c-2.51,0.324-5.755,2.204-8.336,3.753c-2.597,1.543-3.745,2.123-3.454,1.78
		c0.316-0.308,0.579-1.479,2.57-2.826c1.975-1.329,3.622-2.288,4.585-2.895c0.488-0.29,0.654-0.319,1.082-0.438
		c0.444-0.088,1.121-0.334,2.782-0.745c1.68-0.389,2.785-0.156,3.219,0.111c0.441,0.245,0.302,0.46-0.149,0.5
		c-0.454,0.014-1.05,0.21-1.505,0.388c-0.225,0.103-0.425,0.194-0.568,0.26C255.492,191.488,255.408,191.538,255.408,191.538z"/>
</g>
</svg>
